<?xml version="1.0" standalone="no"?>
<!DOCTYPE svg PUBLIC "-//W3C//DTD SVG 20010904//EN"
 "http://www.w3.org/TR/2001/REC-SVG-20010904/DTD/svg10.dtd">
<svg version="1.0" xmlns="http://www.w3.org/2000/svg"
 width="900.000000pt" height="1083.000000pt" viewBox="0 0 900.000000 1083.000000"
 preserveAspectRatio="xMidYMid meet">
<metadata>
Created by potrace 1.10, written by Peter Selinger 2001-2011
</metadata>
<g transform="translate(0.000000,1083.000000) scale(0.100000,-0.100000)"
fill="#000000" stroke="none">
<path d="M4095 10450 c-11 -4 -60 -10 -110 -14 -80 -6 -191 -33 -325 -81 -89
-31 -107 -37 -138 -45 -18 -4 -38 -12 -45 -17 -7 -5 -48 -25 -92 -43 -44 -18
-87 -39 -95 -45 -8 -6 -35 -20 -60 -30 -25 -10 -52 -27 -60 -36 -14 -16 -55
-41 -153 -92 -21 -11 -45 -30 -54 -43 -8 -13 -24 -24 -34 -24 -10 0 -30 -16
-45 -35 -14 -19 -32 -35 -40 -35 -24 0 -81 -40 -92 -66 -9 -18 -9 -31 -1 -46
9 -16 8 -24 -5 -36 -14 -14 -17 -14 -33 0 -29 24 -51 28 -68 12 -11 -12 -13
-20 -5 -29 22 -27 -53 -135 -94 -135 -8 0 -31 -20 -52 -45 -22 -25 -70 -78
-107 -118 -78 -82 -153 -176 -170 -215 -7 -15 -22 -38 -35 -52 -36 -40 -87
-130 -113 -197 -18 -47 -28 -61 -40 -58 -25 8 -46 -26 -52 -86 -3 -34 -17 -76
-35 -110 -16 -30 -32 -64 -36 -76 -4 -13 -22 -47 -40 -78 -19 -30 -41 -79 -51
-108 -21 -64 -33 -79 -56 -72 -23 7 -24 -3 -4 -29 20 -27 19 -33 -12 -62 -24
-22 -25 -27 -14 -52 l13 -27 14 28 c28 52 49 29 34 -35 -6 -24 -13 -56 -15
-73 -2 -16 -7 -46 -10 -66 -5 -26 -2 -39 9 -48 18 -15 21 -73 6 -118 -8 -21
-7 -70 3 -172 8 -78 17 -145 21 -148 3 -3 12 -1 19 5 17 15 27 6 27 -26 0 -15
-7 -26 -20 -29 -29 -8 -25 -26 5 -21 14 3 32 0 41 -7 22 -16 10 -55 -18 -55
-17 0 -20 -5 -15 -28 6 -31 -15 -82 -39 -95 -16 -9 -19 -37 -3 -37 6 0 13 8
16 18 5 21 40 45 52 37 5 -2 12 -25 15 -50 6 -38 10 -44 29 -42 20 2 23 -4 31
-65 8 -56 6 -71 -7 -92 -24 -36 -22 -39 23 -32 39 6 39 6 50 -33 5 -21 18 -49
28 -62 48 -64 71 -116 67 -158 -1 -23 -10 -50 -19 -60 -22 -24 -23 -342 -1
-381 8 -14 14 -35 15 -46 0 -12 7 -24 15 -28 8 -3 15 -18 15 -33 0 -15 12 -50
25 -78 14 -27 25 -54 25 -58 0 -5 11 -32 24 -60 13 -29 27 -63 31 -76 4 -13
20 -46 36 -73 16 -27 29 -51 29 -53 0 -7 63 -99 104 -151 23 -29 65 -85 95
-125 49 -69 106 -116 171 -145 44 -20 57 -46 75 -149 9 -55 23 -114 31 -132 8
-17 14 -43 14 -57 0 -14 4 -26 10 -26 18 0 21 47 6 85 -9 21 -15 62 -15 94 l1
56 12 -47 c6 -26 16 -52 23 -59 7 -7 9 -35 6 -84 -5 -64 -3 -74 15 -91 14 -13
27 -46 36 -95 13 -62 79 -221 116 -279 5 -8 26 -44 46 -80 21 -36 57 -95 81
-132 23 -37 43 -75 43 -85 0 -10 8 -30 17 -43 14 -19 19 -51 21 -136 4 -105 3
-111 -21 -140 -13 -16 -27 -39 -31 -51 -4 -11 -13 -24 -21 -27 -19 -7 -19 -30
0 -46 11 -9 15 -33 15 -89 0 -117 30 -266 83 -416 13 -38 32 -99 42 -135 26
-96 96 -316 127 -400 13 -32 49 -108 76 -155 19 -34 82 -175 82 -184 0 -13 46
-109 81 -171 52 -91 87 -163 115 -236 14 -38 33 -77 41 -86 26 -29 8 -64 -57
-115 -33 -25 -60 -50 -60 -54 0 -5 -23 -26 -51 -46 l-50 -38 6 -54 c4 -31 0
-105 -9 -180 -9 -69 -21 -162 -27 -206 -48 -369 -60 -626 -52 -1057 l6 -308
22 0 c21 0 22 4 28 162 3 90 2 197 -3 238 -18 151 -7 500 25 745 8 61 22 171
30 245 9 74 23 164 30 200 8 36 17 98 21 138 3 40 11 75 17 79 31 19 52 -98
37 -207 -19 -143 -35 -272 -66 -540 -20 -171 -28 -483 -19 -797 l7 -263 42 0
c38 0 42 3 60 39 10 21 29 44 43 50 22 10 24 16 18 49 -3 21 -1 50 4 65 9 24
13 26 30 15 26 -16 36 -5 36 40 0 32 4 38 30 45 17 5 45 15 62 23 28 12 31 17
24 36 -10 29 -69 38 -83 14 -5 -9 -16 -16 -23 -16 -20 0 -19 29 0 37 9 3 22
18 30 34 8 15 23 30 33 33 21 7 49 52 39 62 -4 4 -13 1 -22 -6 -23 -19 -30 -4
-14 28 12 24 63 91 90 117 56 55 83 75 99 75 27 0 25 18 -6 42 -15 13 -24 28
-22 42 1 11 0 26 -4 31 -3 6 -9 28 -12 51 -6 31 -3 45 11 63 21 25 49 21 58
-10 4 -10 10 -19 14 -19 5 0 27 27 51 61 27 39 47 58 56 55 8 -3 17 1 20 9 4
8 15 15 25 15 10 0 19 4 19 8 0 11 -51 35 -58 27 -3 -3 0 -5 6 -5 18 0 14 -27
-4 -34 -9 -3 -28 -6 -44 -6 -15 0 -33 -7 -40 -15 -15 -19 -88 -15 -100 5 -6 8
-10 30 -10 47 0 22 -7 37 -20 45 -24 15 -26 45 -4 70 18 19 13 24 -35 30 -19
2 -27 11 -34 38 -5 19 -20 44 -33 57 -13 12 -24 26 -24 31 0 5 -9 12 -20 15
-26 7 -44 55 -31 83 7 17 5 26 -12 43 -18 17 -22 33 -22 81 0 41 -4 60 -12 60
-7 0 -13 -7 -13 -16 0 -9 -7 -14 -17 -12 -13 2 -18 14 -20 42 -1 28 -9 46 -28
64 -24 22 -27 30 -22 71 5 45 34 111 49 111 4 0 13 6 20 13 28 27 63 47 84 47
17 0 21 5 17 20 -4 15 2 22 22 30 16 6 33 9 39 7 15 -6 67 25 63 38 -2 5 -10
11 -18 11 -8 1 -20 2 -26 3 -22 2 -14 21 11 31 13 5 27 14 31 19 3 6 18 11 31
11 15 0 38 13 56 30 16 17 34 27 40 24 37 -23 113 -22 283 4 33 5 72 6 87 1
18 -5 41 -2 68 8 39 16 40 15 77 -12 45 -33 72 -65 73 -83 0 -10 -13 -13 -52
-10 -47 3 -53 1 -53 -17 0 -17 9 -21 51 -26 29 -4 57 -10 64 -14 6 -4 17 1 25
11 12 17 18 13 84 -52 39 -39 71 -78 71 -86 0 -9 11 -23 25 -32 14 -9 25 -23
25 -31 0 -8 5 -15 10 -15 6 0 14 -10 19 -22 5 -13 27 -54 50 -93 35 -59 41
-78 41 -126 0 -42 -5 -63 -21 -83 -14 -17 -19 -36 -16 -52 3 -17 -1 -28 -14
-35 -11 -5 -19 -16 -19 -24 0 -8 -9 -19 -20 -25 -22 -12 -26 -40 -10 -70 13
-24 -11 -50 -46 -50 -27 0 -32 -15 -9 -24 16 -6 21 -50 5 -44 -5 2 -20 23 -32
48 -13 25 -27 44 -33 43 -17 -4 -17 -40 -1 -56 17 -17 22 -47 8 -47 -5 0 -14
-11 -20 -25 -14 -30 -26 -31 -50 -7 -10 10 -26 21 -35 25 -11 4 -17 17 -17 35
0 32 -22 58 -40 47 -15 -9 -3 -65 20 -90 10 -11 25 -37 35 -58 19 -40 52 -50
75 -22 14 17 36 20 45 4 20 -31 -45 -119 -88 -119 -13 0 -26 -3 -30 -6 -5 -5
17 -49 33 -64 3 -3 5 -25 6 -50 2 -70 12 -130 24 -146 9 -10 9 -22 2 -43 -13
-36 -5 -74 14 -67 23 9 34 -28 31 -104 -2 -63 -4 -70 -20 -66 -25 6 -134 -94
-114 -105 21 -12 58 1 56 20 -1 9 -1 22 0 29 1 14 61 17 61 2 0 -6 11 -15 25
-20 28 -11 33 -35 10 -44 -12 -4 -14 -10 -5 -25 15 -29 -33 -73 -75 -69 -25 3
-30 7 -31 31 -1 15 -4 30 -7 33 -8 8 -66 -58 -66 -76 0 -11 3 -10 14 4 15 19
15 19 46 -3 26 -19 40 -22 81 -19 43 5 51 3 55 -13 7 -25 25 -24 48 1 26 29
31 25 32 -27 1 -27 8 -61 17 -78 9 -16 16 -40 16 -52 0 -17 6 -23 21 -23 21 0
21 3 16 93 -3 50 -10 115 -16 143 -13 70 -14 190 -3 389 6 94 13 271 17 394 3
123 11 235 17 250 6 14 14 60 19 101 5 41 14 110 20 153 11 70 14 78 33 75 29
-4 31 -44 12 -198 -31 -251 -36 -366 -36 -878 0 -497 1 -522 18 -522 17 0 19
28 30 488 7 268 12 550 12 627 0 89 5 161 14 195 8 30 17 102 20 160 5 103 17
160 40 190 21 26 46 90 46 114 0 25 19 73 75 193 19 40 44 96 56 125 12 29 28
60 36 69 7 8 13 18 13 22 0 3 14 30 31 59 107 181 196 379 206 460 3 21 11 42
19 49 8 6 14 23 14 38 0 14 7 35 15 45 8 11 15 29 15 41 0 12 4 25 9 31 6 5
14 27 20 49 5 22 19 65 31 95 12 30 26 71 30 90 4 19 13 49 18 65 28 84 42
132 42 148 0 10 7 25 15 33 16 17 21 89 6 98 -12 8 -21 -18 -21 -57 0 -18 -7
-41 -15 -51 -8 -11 -15 -27 -15 -37 0 -9 -7 -30 -15 -45 -8 -16 -15 -40 -15
-54 0 -14 -7 -34 -15 -44 -8 -11 -15 -28 -15 -38 0 -9 -6 -32 -14 -50 -17 -42
-35 -94 -46 -133 -10 -35 -28 -88 -45 -130 -7 -16 -20 -55 -30 -85 -9 -30 -21
-64 -25 -75 -5 -11 -19 -45 -30 -75 -23 -57 -78 -172 -109 -225 -120 -207
-263 -504 -286 -595 -9 -36 -21 -82 -26 -103 -6 -21 -17 -41 -26 -44 -20 -8
-51 32 -55 72 -2 22 -9 31 -26 33 -22 3 -52 47 -52 76 0 16 107 234 145 296
26 42 56 96 117 210 182 339 222 418 253 500 10 25 21 54 26 65 15 35 40 109
49 144 5 18 13 38 19 44 6 6 11 17 11 23 0 7 14 42 30 77 17 36 30 70 30 75 0
6 8 25 17 44 9 18 22 45 30 60 7 14 13 37 13 50 0 12 7 32 15 42 8 11 15 31
15 44 0 13 7 30 15 38 8 9 15 29 15 45 0 17 6 32 15 35 16 7 21 64 6 64 -5 0
-13 -14 -16 -32 -4 -17 -14 -38 -21 -46 -8 -7 -14 -22 -14 -32 0 -10 -6 -31
-14 -47 -19 -37 -40 -88 -61 -143 -9 -25 -23 -60 -31 -78 -8 -17 -20 -47 -28
-65 -8 -17 -28 -62 -45 -99 -17 -37 -31 -73 -31 -79 0 -6 -6 -23 -14 -37 -8
-15 -21 -47 -31 -72 -9 -25 -22 -58 -29 -75 -28 -67 -181 -367 -253 -495 -17
-30 -41 -73 -53 -95 -12 -22 -37 -67 -56 -100 -69 -119 -127 -248 -132 -291
-5 -45 -16 -53 -44 -32 -19 15 -33 95 -19 112 9 11 51 87 103 186 16 30 37 69
47 85 10 17 34 59 53 95 19 36 72 133 118 215 46 83 110 206 143 275 32 69 81
170 107 225 91 191 113 240 141 325 15 47 48 135 72 196 24 61 56 150 71 197
15 48 31 89 35 92 14 8 61 -35 61 -56 0 -11 9 -32 19 -47 11 -15 22 -43 24
-63 3 -20 8 -42 12 -49 22 -36 44 -238 28 -263 -4 -7 -8 -50 -8 -96 0 -59 -4
-86 -12 -88 -15 -5 -18 -43 -3 -43 25 0 -8 -235 -39 -274 -8 -10 -14 -35 -28
-114 -3 -18 0 -38 7 -47 20 -24 17 -275 -4 -372 -16 -70 -17 -90 -6 -145 6
-34 15 -121 20 -191 8 -129 23 -182 34 -116 3 19 8 50 11 69 16 89 16 131 2
172 -24 67 -27 134 -12 253 9 62 15 189 15 290 0 134 3 186 14 204 24 43 31 3
27 -159 -6 -273 -6 -414 3 -475 l9 -60 13 38 c12 33 11 44 -2 78 -14 34 -14
44 -3 72 20 46 20 1167 1 1190 -15 17 -25 107 -12 107 4 0 15 -11 24 -24 8
-14 25 -27 36 -31 13 -4 20 -15 20 -30 0 -20 8 -27 40 -36 27 -8 42 -19 46
-34 3 -12 18 -29 35 -39 17 -10 29 -26 29 -38 0 -12 8 -22 21 -25 14 -4 17 -8
8 -13 -6 -5 -9 -15 -6 -24 5 -14 10 -14 26 -4 24 15 51 -4 51 -34 0 -13 5 -18
14 -15 17 7 46 -23 46 -46 0 -10 8 -17 18 -17 10 0 35 -17 55 -37 78 -80 93
-93 108 -93 23 0 111 -66 126 -95 12 -22 20 -25 63 -25 43 0 54 -4 77 -31 23
-26 33 -30 68 -27 34 2 42 -1 50 -20 8 -18 16 -23 39 -19 39 5 138 -36 148
-62 8 -24 29 -27 57 -9 15 9 24 8 45 -5 14 -9 35 -17 47 -17 13 0 23 -8 26
-20 4 -16 9 -18 19 -9 16 13 75 -4 95 -27 7 -8 20 -12 30 -9 14 5 22 0 28 -18
9 -24 41 -45 41 -27 0 15 66 12 79 -4 6 -7 34 -16 61 -20 71 -10 82 -15 74
-38 -4 -13 -2 -18 4 -14 6 4 30 3 53 0 35 -6 43 -12 55 -40 17 -40 51 -47 56
-12 5 34 34 33 74 -1 19 -17 43 -31 54 -31 27 0 50 -11 50 -24 0 -6 16 -22 35
-35 27 -18 39 -21 47 -13 8 8 7 13 -5 18 -21 8 -22 24 -2 24 8 0 15 -4 15 -10
0 -5 9 -10 20 -10 12 0 32 -12 45 -26 18 -20 31 -25 49 -20 15 4 28 0 37 -10
22 -27 67 -45 94 -38 19 5 32 0 50 -16 23 -22 26 -22 43 -7 26 23 31 21 29
-10 -2 -28 -1 -29 45 -16 9 3 26 -5 38 -17 12 -12 28 -19 35 -16 7 2 19 -1 25
-9 6 -8 33 -17 58 -21 26 -4 60 -13 75 -21 37 -19 87 -9 87 18 0 10 -5 19 -10
19 -6 0 -45 16 -86 35 -41 19 -82 35 -92 35 -9 0 -26 7 -36 15 -11 8 -30 15
-42 15 -13 0 -25 4 -28 9 -4 5 -25 12 -48 16 -23 4 -49 11 -58 15 -8 4 -67 24
-130 44 -63 21 -136 48 -161 62 -26 13 -53 24 -60 24 -8 0 -25 6 -39 13 -14 7
-59 24 -100 37 -41 13 -80 27 -85 31 -6 4 -29 12 -50 18 -22 5 -65 19 -95 31
-30 12 -84 30 -120 41 -36 11 -74 24 -85 29 -11 5 -49 19 -85 30 -36 12 -74
25 -85 29 -34 14 -127 47 -185 66 -30 10 -84 31 -118 47 -35 15 -70 28 -78 28
-7 0 -28 6 -46 14 -18 8 -60 22 -93 32 -33 10 -64 22 -70 26 -5 4 -18 8 -28 8
-19 0 -48 18 -172 106 -27 19 -98 81 -156 137 -461 446 -539 517 -566 517 -4
0 -16 17 -25 38 -9 20 -28 63 -42 94 -14 31 -26 65 -26 76 0 10 -11 40 -25 66
-14 26 -25 61 -25 79 0 18 11 68 25 111 14 43 25 85 25 93 0 18 61 126 77 136
7 4 13 17 13 28 0 11 11 37 25 58 13 22 27 52 31 68 4 15 16 46 28 68 12 22
31 65 43 95 11 30 35 91 52 136 17 44 31 87 31 95 0 8 4 19 9 24 10 11 38 107
51 179 5 26 15 58 23 70 8 11 56 42 108 68 186 94 268 210 470 668 18 41 50
112 72 156 32 69 38 91 37 140 -1 33 5 82 13 110 13 44 13 58 1 104 -8 30 -14
66 -14 81 0 15 -7 32 -15 39 -8 7 -15 21 -15 31 0 42 -79 153 -97 136 -4 -4
-1 -13 5 -19 9 -9 7 -17 -9 -34 -20 -21 -20 -24 -6 -51 56 -102 91 -220 77
-257 -5 -15 -12 -64 -15 -109 -3 -45 -8 -90 -11 -100 -6 -18 -7 -18 -25 -1
-13 11 -19 30 -19 58 0 23 -5 58 -11 80 -19 70 -31 25 -33 -126 0 -78 -6 -159
-13 -178 -6 -19 -16 -56 -22 -82 -6 -27 -22 -71 -36 -100 -14 -28 -25 -61 -25
-72 0 -27 -36 -99 -60 -121 -11 -10 -20 -25 -20 -33 0 -32 -51 -121 -97 -168
-54 -55 -139 -114 -164 -114 -17 0 -29 19 -29 46 0 8 14 29 31 46 26 28 29 37
23 63 -11 48 -4 158 12 176 8 8 14 25 14 36 0 39 32 65 87 70 44 5 59 12 104
54 44 41 51 52 46 76 -3 15 1 40 9 54 11 22 11 29 -1 45 -8 11 -15 28 -16 39
-1 11 -6 -2 -11 -30 -6 -33 -23 -68 -50 -104 -62 -81 -74 -91 -115 -91 -50 0
-78 -33 -87 -102 -4 -29 -12 -58 -18 -65 -6 -7 -10 -36 -10 -65 0 -70 -23
-170 -43 -180 -8 -5 -15 -21 -15 -36 0 -56 -11 -74 -38 -67 -22 5 -24 4 -18
-19 5 -21 2 -25 -24 -31 -27 -6 -30 -10 -30 -47 0 -22 -11 -67 -24 -101 -13
-34 -27 -80 -31 -101 -3 -21 -12 -48 -20 -60 -7 -12 -16 -39 -20 -60 -4 -22
-18 -61 -31 -88 -13 -26 -24 -53 -24 -60 0 -7 -13 -40 -29 -73 -17 -33 -44
-91 -61 -130 -17 -38 -35 -77 -40 -85 -31 -48 -76 -144 -102 -219 -41 -120
-43 -130 -25 -144 8 -7 17 -31 20 -55 3 -24 12 -51 21 -61 11 -13 17 -43 19
-107 4 -83 2 -93 -27 -149 -17 -33 -45 -81 -63 -107 -18 -26 -33 -52 -33 -58
0 -5 -4 -10 -10 -10 -5 0 -12 -11 -16 -25 -3 -14 -10 -25 -15 -25 -5 0 -14
-10 -19 -23 -11 -24 -13 -27 -88 -140 -29 -44 -55 -91 -59 -105 -5 -23 -33
-54 -140 -155 -14 -13 -21 -28 -17 -39 4 -13 0 -18 -16 -18 -15 0 -26 -12 -41
-44 -21 -48 -59 -85 -108 -105 -17 -8 -31 -17 -31 -22 0 -18 -53 -64 -71 -61
-13 2 -19 -3 -19 -16 0 -10 -11 -28 -25 -40 -14 -12 -25 -31 -25 -41 0 -11 -4
-23 -10 -26 -6 -3 -10 -15 -10 -26 0 -10 -4 -19 -10 -19 -5 0 -10 -11 -10 -24
0 -14 -4 -27 -9 -30 -5 -3 -38 -50 -73 -103 -67 -102 -116 -195 -144 -275 -9
-27 -22 -48 -28 -48 -12 0 -56 60 -56 78 0 6 6 15 13 19 17 11 45 54 88 140
20 39 51 86 67 105 62 66 112 125 112 132 0 23 -80 -17 -108 -55 -6 -10 -28
-23 -47 -29 -36 -12 -48 -30 -20 -30 28 0 29 -31 2 -53 -15 -12 -47 -62 -72
-112 -58 -112 -69 -125 -84 -96 -14 25 -34 27 -51 6 -18 -22 -108 -20 -132 2
-16 14 -22 15 -36 5 -33 -23 -44 -25 -54 -8 -8 14 -18 16 -47 11 l-36 -6 -33
66 c-17 36 -32 73 -32 81 0 9 -12 31 -27 49 -16 19 -40 52 -55 74 -15 23 -35
41 -45 41 -9 0 -24 7 -34 16 -10 9 -23 13 -29 9 -7 -4 10 -27 42 -58 30 -29
64 -72 76 -97 13 -25 27 -52 32 -60 65 -111 71 -124 66 -146 -6 -24 -45 -42
-65 -30 -5 4 -13 21 -16 39 -8 37 -60 145 -81 168 -8 8 -14 18 -14 22 0 3 -19
34 -41 68 -41 61 -108 181 -129 229 -20 45 -55 90 -71 90 -8 0 -29 14 -46 30
-19 18 -34 27 -38 20 -10 -17 -20 -12 -32 18 -10 24 -37 76 -64 122 -5 8 -13
24 -18 35 -10 21 -76 95 -85 95 -4 0 -6 -7 -6 -15 0 -8 4 -15 9 -15 5 0 12
-13 16 -30 4 -16 11 -30 16 -30 5 0 9 -8 9 -17 0 -18 36 -95 171 -368 97 -196
156 -307 190 -360 41 -64 99 -187 99 -211 0 -21 -17 -32 -77 -49 -13 -3 -23
-12 -23 -18 0 -21 -58 -77 -79 -77 -18 0 -21 6 -21 45 0 24 -5 57 -11 72 -22
54 -103 218 -129 263 -15 25 -39 77 -54 115 -16 39 -55 124 -88 190 -90 181
-120 262 -234 630 -25 83 -53 172 -61 199 -10 30 -13 65 -9 92 3 26 0 62 -9
91 -17 55 -20 229 -5 238 5 3 10 15 10 25 0 10 11 31 23 47 66 79 25 323 -79
464 -18 25 -38 56 -44 70 -6 13 -22 42 -35 64 -14 22 -34 60 -46 85 -12 25
-28 57 -36 72 -7 15 -20 47 -28 70 -35 109 -63 186 -77 213 -8 17 -18 54 -22
83 -4 29 -16 67 -26 85 -11 18 -20 50 -20 72 0 53 -13 73 -34 56 -30 -25 -63
38 -35 66 17 17 3 43 -22 43 -16 0 -20 5 -16 20 3 11 -2 25 -10 32 -12 10 -17
9 -28 -5 -22 -31 -60 -20 -114 32 -30 29 -51 59 -51 71 0 11 -11 31 -25 44
-14 13 -25 28 -25 34 0 6 -9 17 -20 25 -20 14 -60 81 -60 100 0 5 -20 36 -45
69 -24 33 -49 78 -55 101 -6 23 -16 55 -22 71 -10 25 -13 199 -6 376 1 25 -1
63 -6 84 -6 33 -9 37 -21 25 -10 -9 -17 -51 -21 -127 -5 -74 -12 -116 -20
-123 -10 -8 -15 -8 -18 2 -21 66 -32 291 -15 331 6 16 12 47 12 69 0 53 14 57
79 25 28 -14 54 -24 56 -21 7 7 -29 45 -42 45 -19 0 -76 78 -76 103 0 13 -9
36 -20 50 -11 14 -23 39 -26 55 -3 16 -23 47 -44 68 -34 35 -36 40 -21 51 15
12 14 14 -6 30 -42 35 -68 134 -41 161 10 10 8 12 -12 10 -19 -2 -25 3 -31 27
-11 48 -37 102 -52 108 -9 3 -12 16 -9 36 2 19 0 31 -7 31 -6 0 -11 11 -11 25
0 29 15 33 29 8 9 -17 10 -17 17 1 4 10 2 26 -4 35 -23 31 -24 42 -8 60 26 29
21 52 -11 49 -23 -3 -28 1 -29 22 -1 14 -3 31 -5 39 -2 8 8 21 24 28 27 14 35
37 17 48 -14 8 -13 58 2 73 9 9 7 13 -5 18 -25 9 -21 24 7 24 39 0 56 11 56
34 0 25 45 72 75 78 12 2 21 13 23 26 4 25 -10 29 -28 7 -10 -12 -96 -65 -106
-65 -14 0 1 44 27 80 30 41 30 44 19 86 -8 28 -9 48 -3 56 11 16 37 117 31
123 -3 3 -14 -4 -26 -15 -15 -15 -22 -33 -22 -60 0 -21 -4 -42 -10 -45 -5 -3
-10 -13 -10 -22 0 -9 -13 -44 -29 -77 -16 -34 -29 -79 -29 -100 0 -29 -6 -44
-24 -58 -33 -25 -43 -17 -41 36 1 34 -3 46 -13 46 -19 0 -18 44 1 60 8 7 15
19 15 28 0 9 9 26 21 38 21 23 37 70 46 137 4 29 2 37 -11 37 -27 0 -18 30 20
67 29 27 38 45 42 81 4 36 1 48 -13 58 -24 18 -10 32 15 16 11 -7 29 -12 40
-12 25 0 27 37 3 55 -19 14 -9 35 17 35 24 0 36 18 21 33 -15 15 -14 48 2 41
13 -5 37 46 37 79 0 9 25 43 56 76 53 57 61 81 28 81 -8 0 -14 4 -14 8 0 14
23 32 40 32 22 0 38 38 33 76 -4 25 0 34 21 48 14 9 26 23 26 31 0 7 11 22 23
32 13 10 29 27 34 38 6 11 29 31 51 45 22 14 43 32 48 41 44 78 78 119 100
119 18 0 27 9 39 36 17 41 35 58 82 80 18 8 42 28 55 44 12 17 27 30 33 30 6
0 20 7 33 15 18 13 20 19 10 35 -16 26 -3 37 20 17 10 -10 24 -17 30 -17 13 0
25 38 20 65 -2 12 5 21 17 24 32 9 75 42 75 57 0 8 -3 14 -6 14 -12 0 -49 -24
-57 -36 -4 -8 -17 -14 -27 -14 -11 0 -20 -4 -20 -10 0 -5 -7 -10 -15 -10 -26
0 -17 18 27 52 22 18 53 45 67 61 17 18 36 27 57 27 18 0 38 8 49 20 10 11 29
20 42 20 13 0 26 7 30 15 8 23 83 71 123 79 19 3 52 18 72 31 21 14 50 25 66
25 15 0 33 5 38 10 18 18 177 71 229 77 28 3 58 9 67 14 9 5 33 9 52 9 21 0
42 7 53 18 10 11 27 22 38 26 18 7 18 8 3 17 -18 10 -48 2 -48 -12 0 -5 -24
-9 -54 -9 -35 0 -58 -5 -66 -15 -14 -17 -67 -20 -90 -5 -13 8 -12 10 3 10 10
0 39 8 65 19 26 10 81 26 122 35 41 10 93 22 115 27 22 5 92 13 155 18 63 5
131 12 150 15 19 4 78 11 130 15 85 8 98 7 122 -10 19 -13 45 -19 83 -19 31 0
65 -5 76 -10 20 -11 27 -50 9 -50 -5 0 -10 -4 -10 -10 0 -5 7 -10 15 -10 8 0
15 5 15 10 0 16 56 12 70 -5 7 -8 27 -15 46 -15 18 0 36 -5 39 -10 13 -21 67
-42 78 -31 25 25 97 3 97 -30 0 -5 14 -9 31 -9 36 0 49 -6 155 -76 46 -30 84
-62 87 -73 3 -12 13 -21 25 -21 14 0 25 -12 36 -40 11 -28 22 -40 36 -40 13 0
28 -13 41 -35 12 -19 29 -35 39 -35 21 0 63 -60 80 -112 13 -44 23 -51 64 -52
21 -1 32 -7 34 -18 2 -11 -3 -18 -12 -18 -23 0 -31 -22 -12 -35 10 -8 14 -19
10 -31 -6 -16 -5 -17 7 -6 18 17 49 15 71 -5 12 -11 42 -18 81 -21 34 -3 65
-10 69 -16 4 -7 32 -11 72 -10 70 1 82 -5 88 -46 2 -19 10 -26 31 -28 16 -2
34 2 42 8 15 12 35 6 35 -11 0 -5 -9 -9 -20 -9 -29 0 -25 -13 11 -34 21 -13
34 -15 41 -8 7 7 16 7 30 -1 15 -10 21 -9 28 3 14 22 12 40 -5 40 -9 0 -18 7
-21 15 -4 8 -12 15 -20 15 -8 0 -14 5 -14 10 0 6 5 10 11 10 18 0 69 -40 69
-55 0 -8 16 -22 36 -31 30 -14 40 -15 56 -5 27 17 86 -13 156 -78 51 -47 60
-71 26 -71 -8 0 -14 -4 -14 -10 0 -5 11 -10 25 -10 17 0 29 -8 35 -22 13 -34
41 -63 78 -84 24 -14 32 -25 32 -46 0 -15 -4 -30 -10 -33 -18 -11 -10 -25 15
-25 21 0 25 -5 25 -29 0 -17 -4 -33 -10 -36 -14 -8 -13 -35 1 -35 20 0 38 33
39 68 0 22 -5 32 -16 32 -18 0 -16 51 2 57 14 5 34 -40 34 -77 0 -19 7 -33 21
-40 23 -13 79 -96 79 -119 0 -8 12 -30 27 -50 15 -19 32 -56 39 -81 7 -25 17
-44 23 -42 6 1 11 -10 11 -24 0 -14 5 -34 10 -44 6 -11 11 -41 12 -67 2 -43
29 -113 58 -147 5 -7 12 -30 16 -52 4 -31 2 -45 -11 -57 -25 -26 -35 -12 -35
48 0 40 -4 54 -16 59 -9 4 -18 5 -20 3 -7 -6 17 -172 31 -216 8 -26 10 -52 6
-65 -9 -22 -4 -129 6 -156 3 -8 16 36 28 99 l23 114 -21 18 c-17 14 -19 20
-10 30 18 18 40 4 48 -33 13 -53 15 -388 4 -448 -6 -30 -15 -75 -19 -100 -5
-25 -20 -79 -35 -120 -14 -41 -29 -88 -32 -103 -3 -16 -11 -31 -19 -34 -7 -2
-16 -17 -19 -33 -3 -15 -15 -36 -26 -46 -10 -9 -19 -23 -19 -31 0 -7 -7 -16
-15 -19 -9 -4 -15 -19 -15 -36 0 -36 -17 -71 -31 -62 -7 4 -8 25 -4 55 4 31 3
49 -3 49 -6 0 -14 9 -17 20 -3 11 -11 20 -16 20 -14 0 -11 -48 6 -73 8 -12 17
-59 20 -107 6 -82 5 -85 -17 -95 -16 -7 -25 -21 -29 -46 -3 -20 -15 -52 -27
-71 -12 -19 -22 -44 -22 -55 0 -11 -11 -30 -25 -43 -14 -13 -25 -30 -25 -38 0
-9 -7 -13 -20 -9 -16 4 -20 0 -20 -19 0 -17 -8 -28 -26 -36 -23 -11 -28 -9
-44 12 l-19 25 -9 -25 c-13 -33 -49 -70 -67 -70 -26 0 -17 47 13 69 l27 20
-30 11 c-48 16 -71 70 -31 70 17 0 27 35 14 48 -7 7 -3 20 12 40 25 34 24 75
-3 80 -22 4 -49 -30 -58 -73 -8 -33 -27 -91 -40 -117 -14 -28 -10 -46 11 -53
23 -7 26 -26 8 -55 -10 -15 -9 -22 6 -39 23 -26 40 -99 26 -116 -7 -8 -7 -22
1 -44 6 -18 9 -46 5 -62 -3 -18 0 -39 8 -52 10 -15 14 -52 14 -120 0 -54 3
-101 6 -104 3 -3 13 -3 22 1 15 6 15 8 -1 26 -15 17 -16 24 -7 45 12 26 27 32
37 15 3 -5 16 -10 27 -10 19 0 20 4 15 43 -3 23 -2 49 3 57 6 9 1 23 -14 41
-17 20 -26 46 -30 92 -7 61 -6 66 19 91 14 14 32 26 40 26 7 0 23 12 35 27 11
15 49 56 83 92 34 36 84 96 111 134 28 37 54 67 59 67 5 0 6 11 3 25 -4 17 4
48 29 100 19 42 35 79 35 84 0 4 13 26 29 48 16 22 32 50 36 64 4 13 16 34 27
46 14 15 18 29 14 50 -7 33 10 85 42 130 12 17 22 35 22 41 0 5 8 20 18 33 15
19 22 64 37 230 9 113 15 224 12 245 -3 22 -10 80 -17 129 -6 50 -17 127 -25
172 -8 45 -15 98 -15 118 0 41 -26 155 -45 200 -16 37 -34 91 -45 130 -17 63
-98 198 -235 390 -60 84 -78 103 -220 230 -60 53 -117 105 -125 115 -16 18
-120 60 -150 60 -23 0 -90 38 -90 51 0 5 -33 9 -74 9 -53 0 -77 4 -86 15 -7 8
-38 23 -69 32 -31 10 -62 23 -69 30 -20 19 -60 16 -89 -7 -30 -24 -76 -26 -93
-5 -7 8 -18 15 -26 15 -31 0 -26 48 7 69 17 10 24 10 36 -1 14 -11 15 -11 12
1 -5 14 -25 23 -81 35 -16 4 -28 12 -28 19 0 6 -10 27 -23 46 -12 19 -29 46
-38 60 -8 14 -40 43 -71 63 -30 21 -92 74 -137 118 -44 44 -86 80 -92 80 -6 0
-20 11 -31 25 -11 14 -23 23 -26 21 -4 -2 -32 11 -62 30 -30 18 -71 42 -90 52
-19 10 -61 33 -92 50 -31 18 -66 32 -77 32 -11 0 -23 5 -26 10 -4 7 -24 8 -52
4 -33 -5 -47 -3 -53 7 -5 7 -25 13 -47 12 -21 -1 -42 2 -48 7 -5 4 -35 10 -65
13 -30 4 -80 13 -110 21 -58 15 -328 20 -365 6z m-1380 -781 c-4 -5 -13 -9
-22 -9 -13 0 -13 3 -3 15 13 15 35 11 25 -6z m3315 -189 c0 -5 -9 -10 -20 -10
-11 0 -20 5 -20 10 0 6 9 10 20 10 11 0 20 -4 20 -10z m-4150 -991 c0 -5 -7
-9 -15 -9 -15 0 -20 12 -9 23 8 8 24 -1 24 -14z m8 -594 c2 -22 10 -44 18 -48
23 -13 6 -27 -31 -27 -31 0 -35 3 -41 36 -8 44 9 87 34 82 12 -2 18 -15 20
-43z m-33 -106 c9 -14 -3 -59 -15 -59 -6 0 -10 16 -10 35 0 34 12 46 25 24z
m25 -93 c0 -3 -10 -21 -21 -41 -16 -27 -24 -33 -30 -23 -10 16 -12 52 -2 61 7
8 53 10 53 3z m250 -961 c0 -2 -5 -15 -11 -29 -14 -30 -29 -25 -29 10 0 17 5
24 20 24 11 0 20 -2 20 -5z m4760 -524 c0 -10 -7 -24 -15 -31 -8 -7 -15 -19
-15 -26 0 -8 -4 -14 -10 -14 -14 0 -13 31 3 63 14 31 37 36 37 8z m-1080
-2515 c0 -13 -11 -44 -25 -70 -22 -42 -95 -246 -95 -267 0 -39 -349 -721 -561
-1099 -83 -146 -119 -223 -126 -266 -9 -57 -49 -37 -60 30 -4 26 0 45 17 73
39 66 55 95 125 228 37 72 83 155 101 185 18 30 52 93 77 140 24 47 68 130 98
185 29 55 87 169 127 254 64 135 71 156 59 170 -15 17 -12 91 3 91 4 0 11 -16
14 -35 7 -37 23 -46 32 -17 3 9 11 33 18 52 7 19 21 60 31 90 23 73 73 177
105 220 15 19 30 43 33 53 9 24 27 12 27 -17z m-330 -519 c0 -13 -6 -31 -14
-42 -7 -11 -31 -54 -53 -95 -22 -41 -73 -136 -113 -210 -40 -74 -86 -160 -102
-190 -16 -30 -37 -68 -47 -85 -17 -28 -42 -75 -156 -290 -27 -49 -56 -115 -66
-145 -9 -30 -23 -56 -30 -58 -8 -1 -25 18 -39 42 l-24 45 21 23 c11 13 35 52
54 88 18 36 61 115 94 175 71 127 127 231 198 365 49 93 80 145 171 285 83
127 106 147 106 92z m-250 -227 c0 -16 -23 -63 -46 -95 -12 -16 -39 -61 -59
-100 -63 -117 -131 -237 -172 -305 -60 -101 -108 -207 -129 -287 -6 -23 -23
-14 -50 27 l-27 41 20 27 c11 15 42 70 68 122 27 52 75 136 107 187 32 51 58
95 58 99 0 4 6 15 14 23 7 9 26 39 41 66 28 51 76 115 130 172 31 33 45 40 45
23z m-1486 -33 c3 -12 18 -36 34 -52 16 -17 44 -59 64 -95 19 -36 50 -90 69
-120 19 -31 39 -64 46 -75 22 -36 86 -149 116 -205 16 -30 36 -63 44 -72 13
-14 13 -21 1 -44 -26 -53 -78 -59 -78 -10 0 35 -26 98 -75 181 -60 100 -89
153 -168 300 -38 72 -73 135 -77 140 -4 6 -11 25 -15 43 -6 28 -4 32 13 32 12
0 22 -9 26 -23z m748 -621 c98 -2 94 -30 -5 -32 -55 -1 -107 -11 -224 -43 -23
-6 -37 -5 -52 6 -26 18 -27 33 -2 33 11 0 22 4 25 8 3 5 29 14 58 20 79 18
101 20 123 14 11 -2 45 -5 77 -6z m-701 -766 c39 -73 39 -78 24 -189 -8 -58
-21 -155 -30 -216 -27 -198 -38 -423 -31 -596 4 -90 8 -178 8 -195 0 -55 -89
-201 -110 -179 -3 3 0 27 8 53 9 33 15 151 20 397 7 338 14 443 46 662 7 56
14 132 14 170 0 37 3 78 6 91 7 25 32 26 45 2z m118 -250 l24 -59 -18 -153
c-10 -84 -20 -251 -22 -370 -3 -120 -8 -218 -12 -218 -4 0 -18 -20 -30 -45
-12 -24 -26 -47 -30 -50 -16 -9 -33 24 -27 52 3 15 8 107 11 203 5 184 16 326
42 550 20 179 24 185 62 90z m1123 -445 c-2 -198 -6 -363 -8 -367 -9 -14 -24
2 -24 24 0 11 -6 34 -14 51 -32 72 -38 208 -18 432 14 157 30 227 51 223 14
-3 16 -39 13 -363z m-1014 190 c15 -79 3 -211 -23 -262 -8 -15 -15 -37 -15
-47 0 -30 -32 -96 -47 -96 -16 0 -17 84 -3 146 5 23 14 104 20 179 6 76 13
142 16 147 3 5 13 8 22 6 12 -2 21 -23 30 -73z m882 -135 c0 -11 -4 -20 -10
-20 -5 0 -10 9 -10 20 0 11 5 20 10 20 6 0 10 -9 10 -20z"/>
<path d="M4376 10241 c-3 -5 1 -12 10 -15 24 -9 64 -7 64 3 0 19 -64 29 -74
12z"/>
<path d="M4530 10191 c0 -6 8 -14 18 -17 9 -3 31 -11 47 -19 27 -12 81 -24
127 -28 35 -4 17 18 -19 23 -21 3 -49 13 -63 22 -32 22 -110 35 -110 19z"/>
<path d="M3751 10120 c-13 -11 -32 -20 -42 -20 -10 0 -19 -4 -19 -10 0 -22 93
-2 112 25 22 31 -15 34 -51 5z"/>
<path d="M4980 10114 c0 -29 68 -94 98 -94 16 0 -9 42 -42 73 -26 25 -56 36
-56 21z"/>
<path d="M3635 10060 c3 -5 13 -10 21 -10 8 0 12 5 9 10 -3 6 -13 10 -21 10
-8 0 -12 -4 -9 -10z"/>
<path d="M3525 10030 c-20 -9 -20 -9 0 -9 11 0 27 4 35 9 13 9 13 10 0 9 -8 0
-24 -4 -35 -9z"/>
<path d="M5130 10030 c0 -5 6 -10 14 -10 7 0 20 -10 29 -22 12 -18 18 -20 28
-11 10 10 9 16 -6 33 -19 21 -65 28 -65 10z"/>
<path d="M4915 10001 c-3 -6 2 -14 12 -18 10 -4 24 -13 31 -20 7 -7 18 -13 23
-13 16 0 10 20 -8 27 -10 3 -25 12 -35 20 -11 10 -18 11 -23 4z"/>
<path d="M5096 10003 c-18 -18 21 -82 50 -83 7 0 14 -9 17 -20 4 -16 12 -19
46 -17 44 2 49 12 27 42 -13 18 -16 18 -42 5 -20 -11 -28 -12 -31 -3 -8 22
-60 82 -67 76z"/>
<path d="M3870 9964 c0 -16 7 -19 46 -17 76 3 75 22 -1 30 -39 5 -45 3 -45
-13z"/>
<path d="M3220 9945 c-10 -12 -9 -16 3 -21 20 -7 37 3 37 22 0 18 -24 18 -40
-1z"/>
<path d="M4040 9940 c0 -5 11 -10 25 -10 14 0 25 5 25 10 0 6 -11 10 -25 10
-14 0 -25 -4 -25 -10z"/>
<path d="M4740 9940 c0 -15 89 -63 106 -56 23 9 13 27 -26 48 -37 19 -80 24
-80 8z"/>
<path d="M3150 9909 c-44 -18 -78 -59 -48 -59 16 0 88 50 88 61 0 11 -8 11
-40 -2z"/>
<path d="M3708 9897 c-16 -13 -28 -29 -28 -36 0 -16 46 -7 70 13 8 7 23 16 33
19 29 10 19 27 -15 27 -19 -1 -45 -10 -60 -23z"/>
<path d="M4882 9878 c3 -7 17 -13 32 -14 14 -1 45 -16 67 -34 39 -31 57 -34
46 -7 -6 17 -102 67 -129 67 -11 0 -18 -5 -16 -12z"/>
<path d="M3852 9863 c2 -12 12 -18 28 -18 16 0 26 6 28 18 3 13 -3 17 -28 17
-25 0 -31 -4 -28 -17z"/>
<path d="M4383 9863 c-25 -10 -13 -32 21 -39 19 -3 42 -15 52 -25 9 -10 27
-19 40 -19 28 0 117 -44 165 -82 43 -33 59 -35 59 -8 0 22 0 22 -98 95 -45 34
-84 55 -100 55 -15 1 -38 7 -52 15 -25 14 -64 18 -87 8z"/>
<path d="M5200 9853 c1 -14 30 -47 36 -41 10 11 -7 48 -22 48 -8 0 -14 -3 -14
-7z"/>
<path d="M3770 9840 c0 -14 39 -32 56 -26 8 3 14 12 14 21 0 11 -10 15 -35 15
-19 0 -35 -4 -35 -10z"/>
<path d="M4286 9821 c-3 -5 1 -12 10 -15 21 -8 56 3 49 15 -8 12 -52 12 -59 0z"/>
<path d="M3264 9806 c-8 -22 -1 -28 26 -24 l22 3 -21 19 c-19 17 -21 17 -27 2z"/>
<path d="M3582 9780 c-21 -28 -22 -30 -4 -30 11 0 37 7 58 16 36 15 37 17 19
30 -29 21 -49 17 -73 -16z"/>
<path d="M5053 9774 c-6 -17 15 -61 54 -107 13 -16 23 -41 23 -57 0 -38 18
-48 22 -13 2 22 8 28 26 26 33 -4 27 10 -23 56 -25 23 -51 57 -59 76 -16 38
-33 45 -43 19z"/>
<path d="M2906 9743 c-13 -14 -5 -33 14 -33 11 0 20 6 20 14 0 15 -24 28 -34
19z"/>
<path d="M5317 9744 c-4 -4 -7 -14 -7 -23 0 -11 3 -12 11 -4 6 6 10 16 7 23
-2 6 -7 8 -11 4z"/>
<path d="M5850 9739 c0 -14 78 -31 98 -20 14 8 15 10 2 15 -31 10 -100 14
-100 5z"/>
<path d="M4910 9717 c0 -7 20 -35 45 -64 25 -28 45 -57 45 -65 0 -7 7 -22 15
-32 8 -11 15 -30 15 -43 0 -12 10 -32 23 -43 19 -19 22 -19 25 -5 6 29 -39
138 -76 185 -55 69 -92 96 -92 67z"/>
<path d="M3980 9705 c0 -11 11 -15 38 -15 35 1 36 2 18 15 -26 19 -56 19 -56
0z"/>
<path d="M5361 9708 c0 -7 4 -22 8 -32 7 -18 8 -18 14 -3 7 20 -1 47 -14 47
-5 0 -9 -6 -8 -12z"/>
<path d="M3815 9700 c-17 -6 -14 -9 17 -15 37 -7 58 -2 58 16 0 11 -47 11 -75
-1z"/>
<path d="M4145 9700 c-17 -7 -15 -9 13 -9 17 -1 32 4 32 9 0 12 -17 12 -45 0z"/>
<path d="M4225 9690 c3 -5 12 -10 20 -10 7 0 15 -7 19 -15 3 -8 18 -15 33 -15
15 0 53 -9 83 -19 42 -14 56 -23 60 -42 4 -17 14 -25 33 -27 33 -4 38 23 6 33
-13 4 -18 12 -15 21 8 20 -71 53 -146 61 -32 3 -61 10 -64 14 -3 5 -12 9 -20
9 -8 0 -12 -4 -9 -10z"/>
<path d="M3175 9669 c-10 -15 3 -25 16 -12 7 7 7 13 1 17 -6 3 -14 1 -17 -5z"/>
<path d="M3663 9673 c-19 -7 -16 -20 5 -25 22 -6 66 15 56 25 -8 8 -42 8 -61
0z"/>
<path d="M3005 9630 c-18 -20 -11 -25 19 -14 17 6 23 34 8 34 -5 0 -17 -9 -27
-20z"/>
<path d="M6140 9640 c-9 -6 -6 -10 11 -15 13 -4 27 -12 30 -17 4 -5 17 -8 30
-6 22 3 20 5 -17 25 -24 12 -46 18 -54 13z"/>
<path d="M2906 9594 c-9 -23 -8 -24 12 -24 19 0 42 18 42 32 0 15 -48 8 -54
-8z"/>
<path d="M4012 9601 c4 -13 18 -16 19 -4 0 4 -5 9 -11 12 -7 2 -11 -2 -8 -8z"/>
<path d="M5210 9583 c0 -30 12 -63 22 -63 14 0 5 73 -9 78 -7 2 -13 -4 -13
-15z"/>
<path d="M5377 9593 c-12 -11 -8 -23 8 -23 8 0 15 7 15 15 0 16 -12 20 -23 8z"/>
<path d="M3620 9570 c-25 -17 3 -27 93 -33 87 -6 119 1 95 20 -19 16 -169 26
-188 13z"/>
<path d="M4183 9561 c-10 -15 -9 -20 1 -24 16 -6 36 11 36 30 0 20 -24 16 -37
-6z"/>
<path d="M4260 9540 c0 -5 12 -10 26 -10 14 0 23 4 19 10 -3 6 -15 10 -26 10
-10 0 -19 -4 -19 -10z"/>
<path d="M4550 9535 c0 -8 7 -15 15 -15 8 0 15 7 15 15 0 8 -7 15 -15 15 -8 0
-15 -7 -15 -15z"/>
<path d="M5160 9522 c0 -18 5 -32 10 -32 6 0 8 11 4 28 -10 39 -14 40 -14 4z"/>
<path d="M4345 9521 c-7 -12 12 -24 25 -16 11 7 4 25 -10 25 -5 0 -11 -4 -15
-9z"/>
<path d="M2865 9510 c-11 -5 -42 -14 -68 -22 -33 -9 -47 -17 -44 -28 7 -36
146 13 147 53 0 9 -9 8 -35 -3z"/>
<path d="M4432 9459 c3 -8 15 -16 29 -18 13 -1 27 -8 30 -13 8 -12 81 -39 87
-33 6 6 -27 38 -55 52 -13 7 -40 15 -60 19 -28 5 -35 4 -31 -7z"/>
<path d="M3673 9453 c9 -2 25 -2 35 0 9 3 1 5 -18 5 -19 0 -27 -2 -17 -5z"/>
<path d="M3887 9454 c-3 -3 -3 -12 0 -20 7 -19 57 -18 73 1 17 20 40 19 56 -2
7 -10 16 -15 20 -11 4 4 1 14 -6 23 -9 10 -31 15 -75 15 -34 0 -64 -3 -68 -6z"/>
<path d="M2590 9398 c-40 -30 -42 -32 -22 -41 21 -10 31 -7 67 15 24 16 35 29
35 46 0 21 -35 13 -80 -20z"/>
<path d="M4712 9392 c9 -4 26 -19 38 -34 23 -30 40 -36 40 -15 0 18 -54 57
-77 56 -16 0 -16 -1 -1 -7z"/>
<path d="M4130 9376 c0 -9 8 -16 18 -17 74 -5 112 -3 112 6 0 5 -15 10 -33 10
-17 1 -47 4 -64 9 -27 6 -33 5 -33 -8z"/>
<path d="M3663 9373 c-48 -9 -20 -23 47 -23 72 0 93 13 39 24 -33 6 -49 6 -86
-1z"/>
<path d="M2480 9340 c0 -5 7 -10 15 -10 8 0 15 5 15 10 0 6 -7 10 -15 10 -8 0
-15 -4 -15 -10z"/>
<path d="M4410 9340 c0 -5 10 -10 23 -10 18 0 19 2 7 10 -19 13 -30 13 -30 0z"/>
<path d="M6180 9336 c0 -20 11 -25 35 -16 19 7 19 7 -2 18 -28 15 -33 15 -33
-2z"/>
<path d="M4700 9313 c0 -14 48 -54 54 -45 3 5 -3 15 -12 23 -27 23 -42 31 -42
22z"/>
<path d="M3378 9292 c-39 -17 -49 -32 -23 -32 20 0 85 32 85 42 0 12 -20 8
-62 -10z"/>
<path d="M4080 9300 c0 -5 7 -10 15 -10 8 0 15 5 15 10 0 6 -7 10 -15 10 -8 0
-15 -4 -15 -10z"/>
<path d="M2882 9268 c-7 -7 -12 -16 -12 -20 0 -5 -15 -21 -32 -37 -29 -26 -31
-30 -15 -36 27 -11 47 2 47 30 0 17 5 25 18 25 10 0 33 11 52 25 l34 25 -40 0
c-22 0 -45 -5 -52 -12z"/>
<path d="M4019 9260 c32 -27 58 -27 31 0 -11 11 -28 20 -37 20 -15 -1 -14 -4
6 -20z"/>
<path d="M3481 9261 c-29 -18 1 -28 96 -30 54 -1 106 -4 116 -7 14 -5 18 -1
15 13 -2 13 -16 20 -48 25 -65 10 -163 9 -179 -1z"/>
<path d="M2483 9235 c-3 -9 -3 -18 0 -21 9 -9 27 6 27 22 0 19 -19 18 -27 -1z"/>
<path d="M4184 9238 c-9 -15 44 -58 71 -57 19 0 19 1 -2 16 -13 8 -23 21 -23
28 0 7 -7 16 -16 19 -21 8 -22 8 -30 -6z"/>
<path d="M6040 9240 c19 -13 30 -13 30 0 0 6 -10 10 -22 10 -19 0 -20 -2 -8
-10z"/>
<path d="M3013 9217 c-4 -7 -25 -23 -45 -36 -21 -12 -38 -27 -38 -32 0 -15 9
-11 48 20 20 16 48 31 61 33 14 2 26 9 29 16 5 16 -45 16 -55 -1z"/>
<path d="M3165 9205 c-16 -14 -39 -28 -50 -31 -33 -11 -128 -78 -116 -82 15
-5 114 42 155 73 17 13 43 28 59 34 15 6 27 15 27 21 0 19 -45 10 -75 -15z"/>
<path d="M3843 9222 c-19 -12 1 -33 43 -48 54 -19 76 -18 72 4 -2 11 -14 18
-38 20 -19 2 -39 10 -43 18 -9 16 -17 17 -34 6z"/>
<path d="M5552 9181 c2 -14 9 -26 16 -29 17 -5 15 10 -3 34 -15 18 -15 18 -13
-5z"/>
<path d="M2366 9174 c-10 -26 -7 -34 13 -34 24 0 33 13 25 34 -8 21 -30 21
-38 0z"/>
<path d="M5982 9178 c5 -15 35 -34 43 -27 3 4 3 14 -1 23 -7 18 -48 23 -42 4z"/>
<path d="M3253 9147 c-25 -11 -31 -37 -10 -37 7 0 22 6 33 14 26 20 8 38 -23
23z"/>
<path d="M4001 9141 c16 -24 39 -28 39 -6 0 8 -4 15 -9 15 -5 0 -17 3 -26 6
-15 6 -15 4 -4 -15z"/>
<path d="M6140 9129 c7 -11 14 -18 17 -15 8 8 -5 36 -17 36 -7 0 -7 -6 0 -21z"/>
<path d="M2290 9133 c0 -5 5 -15 10 -23 9 -13 11 -13 19 0 5 8 7 18 5 22 -6
10 -34 11 -34 1z"/>
<path d="M2871 9122 c-19 -9 -37 -23 -39 -29 -6 -20 27 -15 45 7 10 11 23 20
30 20 7 0 13 5 13 10 0 14 -10 13 -49 -8z"/>
<path d="M3390 9120 c0 -18 4 -20 23 -14 12 4 30 7 40 6 71 -4 111 -2 120 7 8
8 -10 11 -63 11 -41 0 -85 3 -97 6 -19 5 -23 2 -23 -16z"/>
<path d="M6052 9129 c2 -7 10 -15 17 -17 8 -3 12 1 9 9 -2 7 -10 15 -17 17 -8
3 -12 -1 -9 -9z"/>
<path d="M3635 9101 c-8 -14 10 -22 65 -28 34 -4 50 -2 50 6 0 14 -10 17 -67
25 -23 3 -44 2 -48 -3z"/>
<path d="M3150 9080 c-7 -14 -7 -20 0 -20 5 0 10 4 10 8 0 5 10 14 23 20 l22
11 -22 0 c-13 1 -27 -8 -33 -19z"/>
<path d="M6120 9080 c-19 -12 -5 -26 38 -33 40 -8 46 18 6 33 -30 12 -26 12
-44 0z"/>
<path d="M3775 9060 c28 -12 57 -12 50 0 -3 6 -21 10 -38 9 -27 0 -29 -2 -12
-9z"/>
<path d="M4135 9041 c-8 -15 3 -31 21 -31 9 0 14 7 12 17 -4 20 -24 28 -33 14z"/>
<path d="M4886 9022 c-9 -37 -2 -52 15 -35 8 8 8 20 2 40 l-10 28 -7 -33z"/>
<path d="M3195 9030 c3 -5 15 -10 26 -10 10 0 19 5 19 10 0 6 -12 10 -26 10
-14 0 -23 -4 -19 -10z"/>
<path d="M2677 9023 c-14 -13 -6 -33 13 -33 11 0 20 4 20 9 0 13 -26 32 -33
24z"/>
<path d="M4724 9019 c-6 -11 20 -39 35 -39 17 1 35 20 26 28 -18 17 -53 23
-61 11z"/>
<path d="M6360 9022 c0 -19 74 -93 128 -129 28 -19 52 -40 52 -46 0 -6 2 -8 5
-5 9 9 -26 68 -47 79 -18 9 -41 28 -92 74 -31 28 -46 37 -46 27z"/>
<path d="M3100 9011 c-8 -5 -42 -21 -75 -37 -53 -25 -89 -53 -80 -62 2 -2 32
8 67 22 36 14 68 26 72 26 14 0 65 43 60 52 -6 10 -24 10 -44 -1z"/>
<path d="M3905 9010 c-4 -6 6 -10 22 -10 22 0 25 2 13 10 -19 12 -27 12 -35 0z"/>
<path d="M5283 8985 c3 -20 3 -51 0 -67 -6 -29 -7 -30 -47 -24 -22 4 -47 13
-56 20 -8 7 -28 16 -43 18 -23 5 -30 1 -38 -19 -12 -33 -43 -27 -47 10 -3 21
-9 27 -27 27 -26 0 -41 -15 -25 -25 15 -9 12 -45 -5 -51 -21 -9 -19 -24 4 -24
39 0 50 -10 44 -41 -5 -24 -2 -29 15 -29 32 0 47 26 33 57 -14 31 -7 41 19 25
11 -7 34 -12 50 -12 20 0 39 -9 54 -25 26 -28 30 -26 56 32 23 51 54 59 65 16
6 -25 8 -26 17 -9 8 14 6 24 -9 45 -25 33 -37 61 -37 85 -1 11 -7 21 -15 24
-11 4 -13 -3 -8 -33z"/>
<path d="M3562 8982 c-8 -6 -3 -15 19 -31 25 -18 40 -22 71 -18 22 3 69 1 106
-4 79 -11 104 2 47 25 -28 12 -58 15 -122 10 -69 -4 -87 -2 -97 10 -6 9 -16
12 -24 8z"/>
<path d="M6060 8981 c0 -10 30 -24 37 -17 3 3 2 9 -2 15 -8 13 -35 15 -35 2z"/>
<path d="M3468 8968 c17 -8 26 -8 34 0 9 9 4 12 -22 11 -33 0 -34 -1 -12 -11z"/>
<path d="M4680 8962 c0 -21 18 -42 37 -42 20 0 15 38 -6 50 -27 14 -31 13 -31
-8z"/>
<path d="M4487 8963 c-34 -4 -37 -7 -35 -31 3 -24 -1 -27 -30 -30 -21 -2 -41
3 -52 13 -25 23 -55 15 -54 -13 1 -26 -16 -28 -58 -6 -31 16 -32 16 -52 -8
-39 -47 -86 -56 -86 -17 0 14 -7 19 -25 19 -20 0 -24 -5 -22 -22 2 -20 -4 -24
-48 -29 -27 -3 -54 -3 -60 0 -18 11 -95 7 -95 -5 0 -27 -59 -31 -100 -8 -16
10 -35 14 -46 10 -16 -6 -14 -10 13 -34 16 -16 32 -35 35 -42 4 -12 9 -13 32
-2 15 6 38 12 52 12 13 0 27 7 30 15 4 8 15 15 26 15 11 0 28 4 38 10 13 7 19
6 24 -5 6 -17 96 -22 96 -5 0 6 15 10 33 10 17 0 48 5 67 10 27 8 49 7 95 -6
73 -19 158 -9 163 19 2 11 -3 17 -14 17 -10 0 -15 3 -11 6 3 4 21 1 38 -5 25
-8 34 -8 40 0 9 16 78 39 84 29 8 -12 69 -18 88 -8 21 11 23 44 2 52 -8 3 -15
12 -15 21 0 17 -35 21 -45 5 -10 -16 -55 -12 -55 5 0 8 -3 14 -7 13 -5 -1 -25
-3 -46 -5z"/>
<path d="M4847 8964 c-9 -10 2 -24 19 -24 8 0 14 7 14 15 0 15 -21 21 -33 9z"/>
<path d="M3344 8933 c-27 -14 -56 -31 -64 -39 -12 -12 -12 -14 6 -14 25 0 96
34 113 54 22 26 -5 26 -55 -1z"/>
<path d="M2267 8878 c-32 -30 -57 -64 -59 -78 -2 -17 -10 -26 -25 -28 -24 -4
-27 -10 -17 -36 7 -19 33 -21 40 -3 2 7 28 38 57 69 51 54 83 113 67 123 -5 3
-33 -18 -63 -47z"/>
<path d="M3490 8920 c-11 -7 -7 -10 18 -10 17 0 32 5 32 10 0 13 -30 13 -50 0z"/>
<path d="M3854 8919 c-2 -5 8 -11 23 -15 15 -4 42 -15 58 -24 29 -18 32 -17
82 3 50 21 68 46 27 38 -23 -4 -51 -4 -127 2 -32 2 -60 1 -63 -4z"/>
<path d="M5542 8914 c4 -21 22 -23 26 -1 2 10 -3 17 -13 17 -10 0 -15 -6 -13
-16z"/>
<path d="M6022 8921 c2 -7 7 -12 11 -12 12 1 9 15 -3 20 -7 2 -11 -2 -8 -8z"/>
<path d="M2472 8900 c-22 -21 -29 -40 -14 -40 14 0 44 38 40 50 -2 6 -12 2
-26 -10z"/>
<path d="M4910 8912 c0 -15 22 -30 36 -25 24 9 16 33 -11 33 -14 0 -25 -4 -25
-8z"/>
<path d="M5816 8893 c-13 -13 -5 -43 16 -57 20 -14 24 -14 37 -1 12 12 12 17
1 30 -18 21 -46 36 -54 28z"/>
<path d="M5592 8867 c-14 -17 -1 -71 28 -120 23 -39 33 -39 45 1 5 16 2 22 -9
22 -18 0 -61 84 -51 100 9 14 0 13 -13 -3z"/>
<path d="M2940 8846 c-40 -14 -54 -46 -21 -46 12 0 29 9 38 20 10 11 25 20 35
20 10 0 18 5 18 10 0 13 -27 12 -70 -4z"/>
<path d="M5620 8850 c0 -5 7 -10 15 -10 8 0 15 5 15 10 0 6 -7 10 -15 10 -8 0
-15 -4 -15 -10z"/>
<path d="M2822 8782 c-18 -15 -32 -33 -32 -40 0 -10 4 -9 16 2 8 9 21 16 28
16 17 0 48 35 39 43 -10 11 -16 8 -51 -21z"/>
<path d="M5756 8802 c-7 -11 5 -31 42 -72 7 -8 22 -30 33 -48 11 -18 24 -30
29 -27 13 8 1 35 -16 35 -8 0 -14 10 -14 23 0 30 -63 106 -74 89z"/>
<path d="M5950 8802 c0 -12 44 -52 58 -52 17 0 15 6 -12 34 -23 25 -46 34 -46
18z"/>
<path d="M6700 8801 c0 -5 7 -11 15 -15 9 -3 15 0 15 9 0 8 -7 15 -15 15 -8 0
-15 -4 -15 -9z"/>
<path d="M3350 8779 c-23 -19 -23 -22 -7 -34 14 -10 15 -17 6 -44 -13 -37 -6
-50 16 -31 9 8 15 30 15 59 0 26 5 52 12 59 21 21 -15 13 -42 -9z"/>
<path d="M3593 8773 c-18 -7 -16 -23 2 -23 9 0 18 -7 21 -15 4 -8 11 -15 18
-15 14 1 49 47 39 53 -11 6 -65 6 -80 0z"/>
<path d="M3920 8770 c0 -5 7 -10 15 -10 8 0 15 5 15 10 0 6 -7 10 -15 10 -8 0
-15 -4 -15 -10z"/>
<path d="M5480 8750 c6 -11 13 -20 15 -20 3 0 5 9 5 20 0 11 -7 20 -15 20 -13
0 -14 -4 -5 -20z"/>
<path d="M5694 8754 c3 -9 6 -23 6 -32 0 -12 3 -13 11 -5 13 13 3 53 -13 53
-5 0 -7 -7 -4 -16z"/>
<path d="M3020 8740 c-9 -16 -8 -20 5 -20 8 0 15 9 15 20 0 11 -2 20 -5 20 -2
0 -9 -9 -15 -20z"/>
<path d="M3090 8735 c1 -26 2 -28 11 -12 8 14 8 22 0 30 -8 8 -11 3 -11 -18z"/>
<path d="M6750 8735 c0 -33 34 -85 46 -72 5 4 2 18 -6 30 -7 12 -19 33 -27 47
l-13 25 0 -30z"/>
<path d="M2832 8697 c-25 -27 -28 -37 -9 -37 16 0 47 32 47 48 0 19 -14 14
-38 -11z"/>
<path d="M6235 8710 c-8 -13 4 -32 16 -25 12 8 12 35 0 35 -6 0 -13 -4 -16
-10z"/>
<path d="M3247 8694 c-4 -4 -7 -14 -7 -23 0 -11 3 -12 11 -4 6 6 10 16 7 23
-2 6 -7 8 -11 4z"/>
<path d="M5642 8677 c2 -15 9 -21 22 -19 10 2 22 -2 27 -9 4 -8 11 -11 14 -8
11 12 -6 35 -36 46 -28 11 -30 10 -27 -10z"/>
<path d="M2715 8645 c-10 -19 -15 -40 -13 -46 4 -13 31 24 42 59 12 35 -11 26
-29 -13z"/>
<path d="M3554 8585 c-3 -8 -3 -18 0 -24 4 -5 -2 -14 -11 -20 -10 -5 -14 -13
-10 -18 5 -4 14 0 21 10 7 9 25 17 40 17 l26 0 -22 25 c-25 29 -36 31 -44 10z"/>
<path d="M6327 8554 c-2 -3 -3 -14 0 -25 4 -13 14 -19 34 -19 16 0 29 4 29 10
0 11 -55 42 -63 34z"/>
<path d="M3022 8534 c4 -21 22 -23 26 -1 2 10 -3 17 -13 17 -10 0 -15 -6 -13
-16z"/>
<path d="M3358 8498 c-19 -21 -29 -48 -34 -84 -3 -29 -12 -55 -19 -58 -8 -3
-16 -29 -20 -63 -3 -32 -9 -76 -12 -97 l-5 -40 26 29 c21 23 25 35 20 60 -10
55 11 107 66 159 52 50 61 76 36 109 -18 24 -27 22 -58 -15z"/>
<path d="M5747 8523 c-13 -12 -7 -60 8 -73 8 -7 15 -20 15 -29 0 -24 30 -113
45 -131 6 -8 25 -46 41 -83 26 -62 81 -143 90 -135 9 10 -38 137 -62 168 -6 8
-14 29 -17 45 -2 17 -15 55 -27 85 -12 30 -26 68 -30 84 -18 55 -46 87 -63 69z"/>
<path d="M5930 8524 c0 -4 11 -17 25 -30 22 -20 25 -21 25 -6 0 10 -5 23 -12
30 -13 13 -38 16 -38 6z"/>
<path d="M3227 8513 c-6 -11 8 -121 16 -129 3 -4 13 -1 22 6 10 9 15 31 15 71
0 56 -1 59 -24 59 -14 0 -27 -3 -29 -7z"/>
<path d="M2067 8453 c-4 -3 -7 -15 -7 -25 0 -22 26 -24 34 -2 10 25 -10 45
-27 27z"/>
<path d="M6005 8441 c-3 -6 4 -15 15 -21 17 -9 20 -8 20 10 0 20 -24 28 -35
11z"/>
<path d="M3000 8390 c0 -29 4 -40 15 -40 20 0 29 23 21 55 -11 42 -36 31 -36
-15z"/>
<path d="M3142 8308 c-13 -13 -15 -40 -6 -75 7 -27 34 -31 34 -5 0 9 3 26 6
37 7 28 -17 60 -34 43z"/>
<path d="M6410 8306 c0 -8 5 -18 10 -21 6 -3 10 3 10 14 0 12 -4 21 -10 21 -5
0 -10 -6 -10 -14z"/>
<path d="M6140 8297 c0 -2 13 -28 30 -58 16 -30 30 -65 30 -79 0 -25 16 -50
32 -50 4 0 8 22 8 49 0 39 -6 56 -31 87 -17 21 -36 42 -42 46 -13 8 -27 10
-27 5z"/>
<path d="M6262 8289 c2 -7 10 -15 17 -17 8 -3 12 1 9 9 -2 7 -10 15 -17 17 -8
3 -12 -1 -9 -9z"/>
<path d="M2725 8264 c-9 -9 -14 -23 -11 -31 3 -8 6 -21 6 -29 0 -8 5 -14 10
-14 6 0 10 11 10 24 0 14 5 28 10 31 13 8 13 35 1 35 -5 0 -17 -7 -26 -16z"/>
<path d="M2474 8255 c-8 -21 3 -48 19 -43 19 7 22 58 2 58 -8 0 -18 -7 -21
-15z"/>
<path d="M6450 8245 c0 -24 37 -78 45 -66 3 6 -3 27 -15 46 -24 38 -30 43 -30
20z"/>
<path d="M6750 8214 c0 -14 4 -23 10 -19 6 3 10 15 10 26 0 10 -4 19 -10 19
-5 0 -10 -12 -10 -26z"/>
<path d="M2950 8194 c-16 -41 -12 -149 5 -164 8 -6 13 -19 12 -28 -1 -10 3
-18 8 -19 9 -3 10 40 6 195 -1 47 -16 55 -31 16z"/>
<path d="M1740 8181 c0 -12 5 -21 10 -21 6 0 10 6 10 14 0 8 -4 18 -10 21 -5
3 -10 -3 -10 -14z"/>
<path d="M2443 8173 c-4 -10 -13 -22 -20 -26 -18 -11 -7 -27 17 -27 22 0 44
35 36 56 -7 19 -25 18 -33 -3z"/>
<path d="M3090 8173 c0 -25 15 -38 25 -22 4 6 0 18 -9 27 -15 15 -16 15 -16
-5z"/>
<path d="M2285 8151 c-7 -22 10 -61 26 -61 14 0 7 73 -8 77 -6 2 -14 -5 -18
-16z"/>
<path d="M3110 8106 c0 -14 4 -27 9 -31 12 -7 25 31 16 45 -11 18 -25 10 -25
-14z"/>
<path d="M6382 8108 c6 -18 28 -21 28 -4 0 9 -7 16 -16 16 -9 0 -14 -5 -12
-12z"/>
<path d="M3176 8092 c-8 -14 11 -62 25 -62 7 0 9 10 4 28 -8 33 -20 47 -29 34z"/>
<path d="M6282 8088 c-18 -18 -15 -28 8 -28 18 0 35 -31 29 -56 -2 -9 15 -58
29 -83 14 -25 32 -24 32 1 -1 34 -38 139 -57 160 -19 21 -25 22 -41 6z"/>
<path d="M2413 8032 c-37 -29 -41 -161 -5 -138 13 8 35 104 31 133 -4 21 -5
21 -26 5z"/>
<path d="M3117 7978 c-2 -7 -2 -49 1 -92 4 -68 3 -81 -13 -92 -11 -8 -19 -30
-22 -56 -14 -167 -16 -171 -41 -146 -9 9 -12 3 -12 -29 0 -25 -7 -50 -20 -66
-11 -14 -20 -28 -20 -32 0 -4 -13 -23 -30 -42 -16 -18 -30 -42 -30 -53 0 -27
-18 -35 -39 -16 -17 16 -19 14 -24 -24 -4 -28 -14 -47 -36 -66 -17 -14 -31
-33 -31 -41 0 -10 -6 -13 -15 -9 -21 8 -136 -109 -128 -130 3 -8 8 -13 12 -12
3 2 19 10 34 18 16 7 49 33 75 57 25 24 52 43 59 43 8 0 16 6 19 14 3 7 34 36
69 64 35 28 87 84 117 124 29 40 63 87 76 103 106 142 130 264 73 376 -15 30
-33 70 -39 87 -11 33 -27 42 -35 20z m47 -224 c14 -35 4 -114 -14 -114 -13 0
-21 48 -14 90 7 42 18 51 28 24z"/>
<path d="M6432 7922 c-17 -48 3 -112 34 -112 22 0 27 44 11 91 -18 53 -31 59
-45 21z"/>
<path d="M2276 7899 c-16 -74 -5 -98 26 -55 16 21 15 24 -2 51 l-19 29 -5 -25z"/>
<path d="M2726 7893 c-8 -21 3 -121 15 -128 14 -9 33 35 20 48 -6 6 -11 28
-11 48 0 41 -14 59 -24 32z"/>
<path d="M2570 7785 c0 -8 7 -15 15 -15 8 0 15 7 15 15 0 8 -7 15 -15 15 -8 0
-15 -7 -15 -15z"/>
<path d="M2252 7778 c3 -7 15 -15 27 -16 16 -3 22 1 19 10 -3 7 -15 15 -27 16
-16 3 -22 -1 -19 -10z"/>
<path d="M2447 7784 c-8 -8 1 -24 14 -24 5 0 9 7 9 15 0 15 -12 20 -23 9z"/>
<path d="M6386 7781 c-8 -12 3 -41 15 -41 12 0 12 37 0 45 -5 3 -12 1 -15 -4z"/>
<path d="M6495 7720 c-5 -8 -2 -18 6 -24 8 -6 21 -31 28 -55 7 -24 16 -40 20
-35 13 14 22 74 11 74 -5 0 -20 12 -33 26 -18 19 -27 23 -32 14z"/>
<path d="M2510 7650 c0 -37 11 -52 24 -31 8 13 -5 71 -15 71 -5 0 -9 -18 -9
-40z"/>
<path d="M6787 7672 c-12 -13 -15 -28 -11 -54 4 -24 1 -43 -11 -61 -18 -28
-13 -62 11 -71 18 -7 28 16 21 52 -3 14 -1 53 4 86 6 32 8 60 6 62 -2 2 -11
-4 -20 -14z"/>
<path d="M6317 7663 c-12 -11 -8 -23 8 -23 8 0 15 7 15 15 0 16 -12 20 -23 8z"/>
<path d="M6436 7638 c8 -28 45 -78 56 -78 12 0 10 17 -5 32 -8 7 -17 26 -21
41 -3 15 -13 27 -22 27 -11 0 -14 -6 -8 -22z"/>
<path d="M6295 7591 c-6 -21 8 -66 24 -76 6 -3 11 -19 11 -36 0 -37 20 -39 21
-1 2 61 -4 98 -18 115 -21 22 -30 22 -38 -2z"/>
<path d="M6410 7464 c0 -14 4 -23 10 -19 6 3 10 15 10 26 0 10 -4 19 -10 19
-5 0 -10 -12 -10 -26z"/>
<path d="M1700 7450 c0 -5 9 -10 21 -10 11 0 17 5 14 10 -3 6 -13 10 -21 10
-8 0 -14 -4 -14 -10z"/>
<path d="M5768 7455 c-10 -10 21 -63 50 -86 26 -20 26 -21 8 -35 -18 -13 -17
-14 17 -14 28 0 40 -6 54 -26 9 -14 30 -39 46 -55 18 -18 27 -35 23 -45 -3 -9
5 -30 19 -48 14 -18 25 -38 25 -45 0 -6 12 -16 26 -21 21 -8 25 -15 20 -34 -6
-24 7 -36 40 -36 19 0 18 29 -1 36 -10 4 -15 20 -15 48 0 29 -8 52 -24 75 -14
18 -22 39 -19 47 8 21 -85 136 -152 187 -58 44 -104 65 -117 52z"/>
<path d="M3287 7433 c-36 -11 -54 -24 -74 -54 -14 -21 -30 -39 -34 -39 -5 0
-18 -9 -28 -19 -12 -12 -27 -17 -40 -14 -12 3 -21 1 -21 -4 0 -6 -13 -26 -30
-44 -39 -46 -18 -50 28 -6 21 19 52 38 70 42 18 4 37 15 42 26 6 10 18 19 28
19 19 0 112 83 112 100 0 5 -1 10 -2 9 -2 -1 -25 -8 -51 -16z"/>
<path d="M6359 7433 c-6 -35 4 -300 11 -307 6 -6 10 -39 10 -74 l0 -64 28 7
c15 3 31 10 35 14 15 15 20 90 7 106 -16 20 -41 186 -41 280 1 29 -12 45 -36
45 -7 0 -14 -3 -14 -7z"/>
<path d="M2331 7412 c-12 -23 2 -47 23 -39 20 8 22 57 1 57 -8 0 -19 -8 -24
-18z"/>
<path d="M6820 7410 c0 -5 7 -10 15 -10 8 0 15 5 15 10 0 6 -7 10 -15 10 -8 0
-15 -4 -15 -10z"/>
<path d="M3430 7404 c-16 -5 -44 -43 -37 -50 10 -10 55 16 60 35 5 21 4 22
-23 15z"/>
<path d="M6776 7375 c-9 -26 -7 -75 4 -75 15 0 42 47 38 67 -4 23 -34 29 -42
8z"/>
<path d="M3306 7320 c-22 -11 -48 -20 -58 -20 -11 0 -17 -4 -14 -9 8 -12 98 0
114 16 7 7 18 13 23 13 5 0 9 5 9 10 0 16 -31 11 -74 -10z"/>
<path d="M2214 7276 c-3 -14 -14 -30 -23 -35 -21 -13 -8 -25 18 -16 24 7 39
51 23 67 -8 8 -13 3 -18 -16z"/>
<path d="M2696 7284 c-4 -9 -4 -19 -2 -21 8 -8 26 8 26 23 0 19 -16 18 -24 -2z"/>
<path d="M1760 7275 c-10 -12 -10 -15 4 -15 9 0 16 7 16 15 0 8 -2 15 -4 15
-2 0 -9 -7 -16 -15z"/>
<path d="M3480 7282 c-26 -4 -110 -67 -110 -83 0 -14 26 -11 40 6 13 15 47 20
74 9 21 -8 10 -24 -15 -24 -12 0 -19 -5 -17 -12 3 -8 27 -14 62 -15 31 -2 96
-16 144 -32 139 -46 172 -55 179 -48 3 4 -5 11 -18 16 -20 7 -21 10 -8 16 20
8 86 -18 114 -45 24 -22 66 -30 72 -14 2 6 -6 15 -19 19 -22 8 -22 8 5 12 41
7 35 39 -18 90 -50 48 -108 76 -137 67 -11 -3 -37 4 -60 16 -30 16 -51 20 -76
15 -18 -3 -39 -2 -45 3 -11 9 -111 11 -167 4z"/>
<path d="M5360 7283 c-8 -2 -22 -7 -30 -9 -12 -4 -10 -9 9 -23 30 -23 10 -39
-21 -17 -25 18 -69 21 -83 7 -6 -5 -28 -11 -50 -14 -109 -14 -132 -19 -157
-37 -15 -11 -34 -20 -43 -20 -46 0 -70 -43 -45 -80 9 -12 15 -9 40 20 16 19
30 38 30 43 0 9 60 10 60 1 0 -4 -18 -26 -40 -50 -38 -41 -49 -64 -32 -64 11
0 80 36 98 51 13 10 17 10 25 -2 6 -9 3 -18 -9 -28 -15 -12 -14 -12 8 -6 46
13 87 36 111 61 29 31 41 31 29 -2 -6 -14 -10 -27 -10 -30 0 -11 35 -2 78 20
26 13 75 26 109 29 35 4 71 12 82 19 15 9 25 9 45 0 24 -10 25 -10 23 11 -2
18 4 23 31 25 28 3 72 31 72 46 0 3 -30 7 -67 11 -38 3 -83 13 -102 21 -24 11
-37 12 -44 5 -15 -15 -48 -13 -71 4 -21 16 -23 16 -46 8z"/>
<path d="M2637 7253 c-12 -11 -8 -23 8 -23 8 0 15 7 15 15 0 16 -12 20 -23 8z"/>
<path d="M2100 7220 c0 -24 26 -38 42 -22 8 8 8 15 -2 27 -18 21 -40 19 -40
-5z"/>
<path d="M2416 7195 c-3 -9 0 -15 9 -15 8 0 15 7 15 15 0 8 -4 15 -9 15 -5 0
-11 -7 -15 -15z"/>
<path d="M2992 7182 c-27 -37 -26 -65 2 -70 15 -3 17 0 12 14 -4 9 -2 20 4 24
7 4 10 20 8 36 l-3 29 -23 -33z"/>
<path d="M3112 7196 c-18 -5 -31 -15 -29 -21 7 -20 34 -16 61 10 29 26 22 29
-32 11z"/>
<path d="M1720 7160 c-18 -14 -22 -22 -14 -30 17 -17 44 -1 44 26 0 29 1 28
-30 4z"/>
<path d="M4035 7160 c20 -22 31 -20 22 5 -4 8 -14 15 -23 15 -16 0 -16 -2 1
-20z"/>
<path d="M2935 7077 c-21 -51 -28 -87 -17 -87 5 0 21 9 36 21 20 16 26 29 26
60 0 50 -25 53 -45 6z"/>
<path d="M4100 7075 c0 -14 4 -25 9 -25 12 0 23 29 15 41 -10 18 -24 9 -24
-16z"/>
<path d="M1667 7063 c-13 -12 -7 -23 13 -23 11 0 20 7 20 15 0 15 -21 21 -33
8z"/>
<path d="M2330 7060 c0 -5 6 -10 14 -10 8 0 18 5 21 10 3 6 -3 10 -14 10 -12
0 -21 -4 -21 -10z"/>
<path d="M2210 7045 c12 -15 30 -12 30 6 0 5 -10 9 -21 9 -18 0 -19 -2 -9 -15z"/>
<path d="M1904 7017 c-10 -12 -31 -47 -46 -79 -15 -31 -41 -66 -58 -78 -34
-25 -39 -40 -11 -40 30 0 88 59 111 112 11 26 25 50 30 53 12 7 13 42 2 49 -5
3 -17 -5 -28 -17z"/>
<path d="M2240 6996 c0 -8 5 -18 10 -21 17 -10 11 -25 -9 -25 -19 0 -35 -23
-24 -34 4 -3 13 -6 21 -6 9 0 23 -7 33 -16 28 -25 42 -8 23 28 -13 26 -14 36
-4 51 9 16 9 21 -2 28 -21 14 -48 10 -48 -5z"/>
<path d="M2528 6983 c-7 -15 -14 -46 -15 -68 -4 -51 -9 -115 -11 -137 -1 -10
-10 -18 -20 -18 -23 0 -50 -61 -53 -120 -2 -34 4 -55 24 -87 15 -24 27 -53 27
-65 0 -27 38 -108 51 -108 12 0 11 -34 -2 -47 -7 -7 -4 -31 11 -82 12 -39 19
-78 16 -86 -9 -23 4 -44 35 -61 26 -13 30 -13 35 1 4 9 0 23 -8 33 -11 13 -13
36 -8 102 3 47 2 155 -2 240 -7 159 -10 442 -6 495 3 27 0 30 -30 33 -27 3
-34 -1 -44 -25z m-18 -379 c0 -17 -22 -14 -28 4 -2 7 3 12 12 12 9 0 16 -7 16
-16z"/>
<path d="M6620 6971 c-5 -11 -10 -31 -10 -45 0 -14 -6 -29 -14 -33 -17 -10
-40 -53 -28 -53 5 0 15 7 22 15 7 8 19 15 27 15 17 0 55 84 47 105 -8 21 -31
19 -44 -4z"/>
<path d="M2325 6860 c-7 -11 22 -83 43 -107 11 -12 22 -29 25 -37 9 -23 27
-20 27 4 0 11 -7 20 -15 20 -10 0 -15 10 -15 30 0 18 -6 33 -15 36 -20 8 -9
24 16 24 12 0 19 7 19 19 0 15 -8 18 -40 18 -22 0 -42 -3 -45 -7z"/>
<path d="M3519 6826 c-3 -3 -28 -10 -55 -15 -71 -14 -177 -66 -263 -128 -24
-18 -52 -33 -61 -33 -24 0 -34 -29 -13 -37 9 -4 42 -1 73 5 81 17 106 15 163
-13 28 -14 71 -28 96 -31 25 -2 40 -1 33 2 -8 3 -37 21 -65 40 -28 19 -57 34
-64 34 -43 0 1 61 71 98 48 26 66 16 63 -36 -2 -56 32 -130 63 -136 54 -10
167 -18 305 -21 137 -2 145 -1 145 17 0 36 -60 115 -124 163 -41 31 -76 46
-166 72 -57 16 -191 29 -201 19z m165 -79 c12 -33 -3 -52 -32 -42 -26 8 -38
41 -21 61 18 22 42 13 53 -19z m183 -59 c80 -79 75 -88 -59 -104 -66 -7 -81 7
-54 48 8 13 18 42 22 66 9 56 26 54 91 -10z"/>
<path d="M2426 6812 c-8 -13 3 -42 15 -42 11 0 11 21 0 39 -5 8 -11 9 -15 3z"/>
<path d="M5360 6808 c-25 -5 -59 -16 -77 -24 -17 -8 -40 -14 -52 -14 -12 0
-21 -4 -21 -9 0 -5 -13 -14 -29 -21 -54 -22 -171 -150 -171 -186 0 -10 20 -12
78 -11 42 1 99 -2 127 -6 27 -4 63 -5 80 -1 29 7 29 7 -20 21 -27 7 -74 18
-104 23 -30 5 -58 13 -63 18 -10 10 139 145 155 139 7 -3 18 -27 26 -55 7 -28
19 -56 26 -62 7 -6 16 -22 19 -35 6 -23 11 -25 68 -25 33 0 77 5 98 11 32 10
38 17 48 55 7 24 12 57 12 72 0 43 17 54 54 35 40 -20 76 -53 76 -69 0 -7 -20
-25 -45 -40 -65 -37 -57 -63 9 -29 46 24 97 28 160 11 40 -10 65 -12 77 -5 20
10 16 34 -8 44 -9 3 -46 25 -82 49 -36 24 -86 54 -111 66 -25 12 -53 26 -63
31 -9 5 -45 12 -80 15 -34 2 -80 6 -102 8 -22 2 -60 -1 -85 -6z m47 -46 c11
-7 16 -26 14 -50 -2 -21 -55 -11 -59 11 -8 38 15 58 45 39z"/>
<path d="M6780 6575 c0 -8 5 -15 10 -15 6 0 10 7 10 15 0 8 -4 15 -10 15 -5 0
-10 -7 -10 -15z"/>
<path d="M2415 6140 c-7 -12 2 -30 16 -30 5 0 9 9 9 20 0 21 -15 27 -25 10z"/>
<path d="M2416 6068 c-23 -32 -20 -52 13 -84 73 -72 96 -84 155 -84 82 0 75
15 -29 70 -73 38 -69 34 -55 60 25 48 -53 83 -84 38z"/>
<path d="M6390 6063 c1 -14 30 -47 36 -41 8 8 -14 48 -26 48 -6 0 -10 -3 -10
-7z"/>
<path d="M4951 5873 c0 -10 9 -31 19 -48 55 -90 73 -133 77 -191 4 -44 1 -69
-11 -92 -24 -47 -83 -101 -132 -123 -48 -20 -60 -49 -21 -49 50 0 117 32 144
68 60 79 66 99 60 181 -7 85 -21 127 -75 212 -37 58 -63 75 -61 42z"/>
<path d="M2639 5868 c-4 -50 2 -113 10 -121 8 -8 11 9 11 55 0 37 -4 70 -10
73 -5 3 -10 0 -11 -7z"/>
<path d="M4013 5825 c-3 -9 -3 -19 1 -22 7 -7 36 16 36 28 0 15 -30 10 -37 -6z"/>
<path d="M3986 5759 c-22 -45 -20 -50 5 -11 12 18 19 35 16 38 -3 3 -12 -9
-21 -27z"/>
<path d="M2657 5669 c-17 -36 -17 -40 -1 -63 24 -38 34 -32 33 22 -1 74 -11
87 -32 41z"/>
<path d="M4118 5530 c-50 -39 -38 -47 84 -55 117 -7 145 -16 208 -66 19 -15
54 -33 77 -40 36 -10 46 -10 60 3 54 46 150 86 238 97 150 20 154 22 114 62
-19 19 -30 21 -95 17 -78 -5 -120 -25 -186 -89 -29 -27 -36 -29 -109 -29 -74
0 -79 2 -112 33 -76 70 -96 80 -176 85 -67 4 -79 1 -103 -18z"/>
<path d="M3960 5532 c0 -6 5 -14 10 -17 6 -3 10 -15 10 -27 0 -49 62 -98 143
-112 32 -6 37 -4 37 12 0 12 -11 24 -30 32 -16 7 -35 18 -41 26 -6 8 -21 14
-32 14 -11 0 -37 19 -59 42 -21 23 -38 36 -38 30z"/>
<path d="M4560 4890 c0 -5 13 -10 29 -10 17 0 33 5 36 10 4 6 -8 10 -29 10
-20 0 -36 -4 -36 -10z"/>
<path d="M3995 4789 c-22 -4 -70 -6 -107 -2 -83 7 -124 -7 -131 -45 -6 -31 9
-45 34 -31 24 12 60 11 113 -3 35 -9 56 -9 100 2 47 11 69 11 158 -3 182 -29
341 -39 421 -28 289 43 411 48 457 19 14 -9 31 -6 79 12 46 17 73 21 106 17
45 -7 45 -6 45 23 0 24 -6 33 -27 41 -29 11 -221 2 -238 -12 -6 -4 -67 -8
-135 -9 -69 -1 -154 -8 -190 -16 -86 -19 -301 -19 -420 0 -52 9 -117 16 -143
16 -33 0 -49 5 -53 15 -7 16 -10 17 -69 4z"/>
<path d="M3045 3909 c-52 -27 -95 -68 -95 -90 0 -9 -6 -22 -14 -28 -16 -14
-76 -136 -76 -155 0 -8 -7 -27 -15 -42 -8 -16 -15 -37 -15 -46 0 -9 -4 -19 -9
-22 -5 -4 -12 -25 -16 -49 -4 -23 -11 -49 -16 -58 -4 -9 -11 -92 -14 -185 -3
-93 -9 -209 -14 -259 -9 -96 -7 -230 2 -255 3 -8 8 -44 10 -80 2 -36 6 -72 11
-81 4 -10 1 -22 -8 -32 -9 -9 -16 -24 -15 -34 0 -14 2 -13 10 5 14 37 29 15
29 -44 0 -39 4 -54 14 -54 9 0 15 18 20 53 9 80 7 195 -4 202 -18 11 -11 64
10 75 16 9 20 7 25 -12 2 -13 4 -41 3 -63 -1 -22 -1 -96 0 -165 2 -183 -3
-308 -15 -365 -6 -27 -8 -68 -4 -89 l6 -40 18 28 c10 15 22 51 27 81 5 30 14
64 21 76 8 15 9 40 4 78 -5 31 -9 94 -11 141 -5 170 -21 408 -30 421 -26 43
-59 511 -38 558 4 9 8 30 9 46 4 44 22 107 33 114 6 3 13 20 17 36 10 45 44
115 55 115 6 0 10 10 10 23 0 25 64 107 83 107 24 1 63 110 39 110 -4 0 -25
-9 -47 -21z m-239 -1125 c-4 -14 -12 -24 -19 -21 -13 4 -13 178 0 207 9 20 26
-155 19 -186z"/>
<path d="M2875 3809 c-112 -109 -167 -166 -200 -203 -70 -80 -341 -307 -382
-320 -13 -4 -23 -12 -23 -17 0 -5 -5 -9 -11 -9 -6 0 -25 -11 -42 -24 -18 -13
-70 -43 -117 -66 -90 -44 -100 -49 -167 -93 -24 -15 -46 -27 -50 -27 -5 0 -20
-6 -35 -14 -15 -8 -42 -17 -60 -21 -32 -7 -133 -43 -193 -70 -16 -7 -49 -20
-72 -29 -24 -9 -60 -22 -80 -30 -21 -8 -74 -26 -118 -39 -44 -14 -96 -31 -115
-38 -123 -44 -174 -60 -245 -79 -44 -11 -88 -25 -97 -30 -10 -6 -29 -10 -44
-10 -14 0 -38 -6 -52 -13 -15 -8 -42 -21 -60 -30 -19 -9 -41 -17 -51 -17 -9 0
-26 -7 -37 -15 -10 -8 -32 -15 -47 -15 -16 0 -43 -6 -60 -14 -18 -7 -61 -22
-97 -31 -36 -10 -77 -24 -92 -32 -15 -7 -34 -13 -42 -13 -9 0 -45 -14 -79 -30
-35 -17 -70 -30 -78 -30 -8 -1 -32 -9 -54 -20 -22 -11 -48 -19 -57 -20 -31 0
-20 -25 16 -36 30 -9 41 -7 88 18 34 18 68 28 95 28 34 0 46 5 59 25 13 19 25
25 55 25 21 0 41 5 44 11 4 6 19 7 36 4 21 -5 43 1 84 24 31 17 67 31 80 31
13 0 52 13 86 30 35 16 72 27 81 24 17 -5 65 16 100 44 12 10 21 11 36 3 16
-9 29 -6 64 14 23 14 58 25 76 25 17 0 32 3 32 8 0 13 74 34 118 33 37 -1 44
2 52 24 5 14 16 25 25 25 9 0 41 9 72 20 32 11 63 20 70 20 7 0 13 -9 13 -20
0 -23 1 -24 34 -9 13 6 27 20 29 30 6 21 28 24 57 9 24 -13 37 5 13 19 -20 11
-22 9 37 37 56 27 141 54 168 54 29 0 94 29 115 51 13 13 32 19 65 19 42 0 50
4 75 36 25 31 33 34 59 29 27 -6 29 -5 23 14 -5 17 3 25 62 52 37 17 79 40 92
50 13 11 30 19 37 19 7 0 34 15 60 33 25 17 53 36 63 42 9 5 39 27 68 47 29
21 57 38 63 38 6 0 17 14 24 31 7 16 27 39 44 49 18 11 32 24 32 30 0 5 5 10
11 10 13 0 98 91 99 106 0 6 11 20 25 32 14 12 25 28 25 34 0 7 25 39 56 72
63 67 82 96 62 96 -7 -1 -17 -5 -23 -11z"/>
<path d="M5940 3735 c0 -14 5 -25 10 -25 6 0 10 11 10 25 0 14 -4 25 -10 25
-5 0 -10 -11 -10 -25z"/>
<path d="M3086 3728 c-10 -21 -4 -107 12 -168 6 -25 20 -83 31 -130 11 -47 27
-110 36 -140 9 -30 29 -104 45 -165 50 -195 58 -221 84 -286 14 -36 39 -91 56
-124 16 -32 30 -63 30 -68 0 -5 6 -23 14 -40 7 -18 24 -56 36 -86 23 -58 49
-101 115 -191 39 -54 55 -94 90 -225 26 -95 51 -159 64 -163 32 -11 -12 215
-62 318 -11 25 -40 71 -63 103 -49 66 -82 133 -114 227 -12 36 -46 115 -75
175 -52 106 -73 165 -110 305 -20 75 -63 223 -105 360 -15 52 -30 106 -33 120
-3 14 -10 39 -16 55 -5 17 -14 55 -19 85 -6 38 -11 50 -16 38z"/>
<path d="M3024 3663 c-16 -130 8 -305 71 -523 8 -25 21 -70 29 -100 20 -71
104 -339 115 -365 47 -113 100 -206 159 -280 77 -97 121 -214 141 -380 15
-118 28 -155 53 -155 18 0 20 4 14 33 -4 17 -11 64 -16 102 -30 213 -41 240
-180 445 -47 69 -64 100 -106 200 -9 19 -19 44 -24 55 -5 11 -19 49 -30 85
-12 36 -26 74 -31 85 -5 11 -13 38 -18 60 -6 22 -17 63 -25 90 -30 107 -59
212 -66 245 -4 19 -12 55 -19 80 -24 101 -41 219 -41 292 0 92 -16 111 -26 31z"/>
<path d="M3977 3704 c-11 -12 3 -24 29 -24 27 0 32 15 8 24 -20 8 -29 8 -37 0z"/>
<path d="M2967 3546 c-10 -158 -8 -228 8 -256 8 -14 14 -39 15 -56 0 -16 7
-39 15 -50 8 -10 15 -36 15 -57 0 -20 7 -65 16 -100 8 -34 22 -89 31 -122 20
-80 55 -196 64 -215 4 -8 10 -22 13 -30 4 -8 15 -28 26 -45 11 -16 25 -40 31
-52 7 -13 15 -23 19 -23 4 0 11 -8 14 -17 7 -19 12 -28 59 -100 15 -24 27 -45
27 -47 0 -3 13 -27 28 -53 16 -27 31 -60 34 -73 3 -14 16 -63 28 -109 14 -55
20 -107 19 -150 -4 -88 9 -166 33 -208 l21 -34 -22 -23 c-18 -19 -21 -34 -21
-117 -1 -52 -5 -139 -10 -194 -29 -301 -43 -604 -46 -965 -3 -408 1 -450 37
-450 18 0 18 19 17 438 0 421 4 523 36 862 8 85 20 203 25 262 6 60 15 117 21
127 14 28 13 39 -8 45 -14 5 -17 14 -14 36 2 17 -1 52 -8 78 -7 26 -13 94 -15
152 -2 75 -9 127 -25 180 -28 92 -75 186 -132 261 -16 20 -28 40 -28 44 0 4
-13 24 -28 44 -57 72 -107 201 -167 426 -55 205 -72 266 -89 325 -10 33 -19
118 -24 215 l-7 160 -8 -109z"/>
<path d="M5936 3593 c-3 -3 -6 -21 -6 -38 0 -18 -7 -38 -15 -45 -8 -7 -15 -27
-15 -45 0 -18 -7 -38 -15 -45 -8 -7 -15 -24 -15 -39 0 -14 -7 -35 -15 -45 -8
-11 -15 -28 -15 -37 0 -10 -6 -30 -14 -46 -33 -68 -47 -104 -77 -198 -17 -55
-38 -115 -45 -133 -8 -18 -14 -39 -14 -47 0 -8 -7 -31 -16 -52 -9 -21 -22 -51
-29 -68 -35 -83 -234 -469 -326 -635 -67 -120 -108 -205 -129 -267 -24 -75
-25 -96 -4 -91 9 2 32 42 55 96 22 51 58 127 81 170 166 306 368 710 368 734
0 9 6 29 14 45 18 36 36 88 46 133 9 39 25 87 46 138 8 18 14 39 14 47 0 15
21 68 46 117 8 14 14 33 14 41 0 8 7 28 15 43 8 16 15 38 15 49 1 11 7 31 15
45 8 14 14 39 15 56 0 17 7 37 15 44 8 7 15 25 15 41 0 28 -12 44 -24 32z"/>
<path d="M6000 3562 c0 -26 4 -41 10 -37 13 8 13 45 0 65 -7 11 -10 3 -10 -28z"/>
<path d="M3300 3551 c0 -5 7 -16 15 -25 8 -8 15 -28 15 -45 0 -17 10 -54 23
-83 13 -29 38 -100 56 -158 18 -58 39 -120 47 -138 8 -18 14 -39 14 -48 0 -8
11 -37 25 -63 13 -27 34 -76 45 -108 11 -33 55 -129 98 -214 43 -85 86 -172
95 -194 10 -22 33 -67 52 -100 19 -33 45 -80 56 -105 44 -93 58 -115 75 -118
41 -9 -19 160 -98 275 -16 24 -35 60 -42 80 -8 21 -27 63 -43 93 -94 173 -116
219 -173 365 -34 88 -68 176 -75 195 -8 19 -16 58 -19 85 -6 49 -70 190 -102
226 -8 8 -14 23 -14 32 0 9 -4 17 -9 17 -5 0 -11 9 -14 20 -5 20 -27 29 -27
11z"/>
<path d="M5996 3318 c-9 -34 -7 -68 3 -68 12 0 21 26 21 61 0 34 -15 39 -24 7z"/>
<path d="M2902 3274 c6 -41 21 -91 44 -137 8 -17 14 -61 14 -108 0 -44 5 -89
10 -100 14 -25 50 -166 50 -194 0 -11 31 -69 69 -127 38 -58 72 -117 76 -130
8 -28 27 -72 65 -153 37 -77 62 -207 71 -370 8 -147 18 -202 43 -240 14 -22
20 -24 32 -14 8 7 12 19 9 27 -18 48 -35 171 -34 257 0 61 -6 123 -15 160 -9
32 -16 69 -16 82 0 20 -104 252 -131 293 -5 8 -12 23 -15 33 -4 9 -10 17 -13
17 -7 0 -63 81 -90 130 -12 23 -31 90 -50 185 -5 22 -13 53 -20 68 -6 16 -11
61 -11 101 0 48 -5 79 -15 92 -8 10 -15 28 -15 39 0 11 -9 34 -20 50 -11 17
-20 38 -20 47 0 9 -5 20 -11 24 -8 5 -10 -5 -7 -32z"/>
<path d="M5965 3203 c-3 -21 -13 -50 -21 -65 -15 -29 -19 -88 -5 -88 13 0 21
26 21 66 0 24 5 34 15 34 11 0 15 12 15 45 0 55 -17 60 -25 8z"/>
<path d="M2876 3142 c-8 -14 2 -54 16 -63 4 -3 10 -49 12 -103 2 -54 9 -103
15 -109 6 -6 11 -33 11 -59 0 -27 7 -65 15 -85 8 -19 15 -45 15 -57 0 -12 5
-27 12 -34 9 -9 9 -20 -1 -47 -7 -19 -9 -40 -6 -45 10 -17 35 -311 29 -339 -3
-15 -12 -42 -19 -61 -7 -19 -16 -64 -20 -100 -4 -36 -13 -107 -21 -159 -10
-62 -13 -121 -8 -177 5 -58 3 -93 -6 -114 -10 -24 -10 -33 0 -45 19 -23 27
-18 33 23 3 20 10 66 15 102 6 36 16 126 21 200 12 141 34 278 51 310 13 25
13 84 -2 170 -12 69 -6 98 18 82 5 -4 21 -36 33 -72 25 -70 30 -185 10 -239
-6 -14 -17 -91 -24 -171 -8 -80 -19 -188 -25 -240 -36 -335 -36 -377 -4 -530
5 -24 6 -24 20 -6 10 15 14 54 14 155 0 75 5 179 10 231 6 52 15 147 20 210 6
63 14 140 20 170 5 30 12 80 15 111 5 45 10 58 26 62 14 4 19 14 19 42 0 49
-18 120 -45 180 -13 28 -33 78 -44 113 -12 34 -34 83 -50 110 -16 26 -32 58
-36 72 -4 14 -11 30 -15 35 -4 6 -10 22 -14 38 -3 15 -11 27 -16 27 -6 0 -10
27 -10 59 0 42 -5 64 -16 76 -13 13 -17 36 -16 103 0 53 -5 97 -13 112 -7 14
-17 36 -22 49 -6 17 -12 21 -17 13z"/>
<path d="M6003 3090 c0 -25 2 -35 4 -22 2 12 2 32 0 45 -2 12 -4 2 -4 -23z"/>
<path d="M5904 3013 c-7 -33 -21 -73 -63 -172 -17 -40 -31 -81 -31 -90 0 -9
-7 -25 -15 -35 -8 -11 -15 -34 -15 -52 0 -17 -7 -45 -15 -60 -8 -16 -15 -39
-15 -51 0 -12 -8 -39 -17 -60 -50 -112 -93 -197 -138 -273 -28 -47 -75 -141
-104 -210 -29 -69 -57 -129 -60 -135 -4 -5 -16 -39 -25 -75 -10 -36 -25 -82
-32 -103 -8 -20 -14 -46 -14 -57 0 -11 -13 -44 -30 -73 -28 -51 -30 -59 -30
-168 0 -63 -5 -141 -11 -174 -6 -33 -12 -206 -14 -385 -2 -179 -7 -441 -10
-582 l-7 -258 24 0 24 0 12 313 c7 171 12 435 12 586 0 225 4 299 21 418 20
135 20 145 4 169 -16 25 -15 27 9 63 14 20 26 42 26 49 0 6 6 26 14 44 8 18
24 67 37 108 20 67 32 99 83 215 8 17 28 64 45 105 18 41 52 107 75 145 61 97
136 283 136 337 0 24 7 52 15 62 8 11 15 30 15 43 0 12 6 37 14 55 8 18 22 53
31 78 17 44 26 65 59 143 18 42 22 107 6 107 -5 0 -12 -12 -16 -27z"/>
<path d="M5966 2997 c-3 -13 -1 -36 3 -52 8 -27 9 -24 10 23 1 56 -3 66 -13
29z"/>
<path d="M5935 2868 c-4 -18 -14 -42 -21 -53 -8 -11 -14 -29 -14 -40 0 -11 -7
-29 -15 -39 -8 -11 -15 -37 -15 -57 0 -21 -4 -40 -9 -43 -5 -4 -12 -24 -16
-47 -5 -31 -3 -45 10 -59 13 -14 15 -28 10 -59 -8 -48 -25 -45 -25 5 0 50 -16
41 -24 -13 -3 -27 -12 -61 -20 -78 -16 -34 -25 -57 -57 -135 -13 -30 -33 -71
-45 -90 -28 -46 -94 -187 -94 -202 0 -6 12 -35 26 -63 52 -107 63 -309 31
-585 -12 -102 -19 -261 -22 -467 -5 -345 2 -388 36 -238 7 28 15 193 19 380 5
197 13 350 20 380 19 78 16 365 -5 450 -20 84 -25 251 -7 280 8 14 11 16 12 5
0 -8 7 -28 16 -45 20 -36 39 -143 59 -324 13 -118 13 -149 0 -245 -19 -147
-39 -488 -31 -521 9 -36 30 -26 37 16 3 19 8 40 13 47 4 6 9 92 11 189 2 98 8
196 14 218 25 95 6 418 -36 602 -11 49 -14 91 -9 135 8 75 31 167 46 182 22
22 30 -19 29 -149 -1 -92 5 -164 20 -248 23 -133 29 -410 11 -508 -6 -30 -7
-67 -4 -84 l7 -30 17 40 c9 22 20 63 24 90 4 28 14 73 21 100 8 34 10 71 5
115 -5 36 -13 124 -20 195 -6 72 -18 159 -27 195 -18 75 -13 243 12 395 21
128 20 165 -5 165 -16 0 -20 7 -20 33 1 17 7 43 15 57 8 14 15 41 15 60 0 19
7 44 15 54 17 22 20 52 6 60 -5 4 -13 -8 -16 -26z m-42 -300 c-3 -16 -9 -28
-14 -28 -11 0 -12 63 -2 74 12 11 22 -17 16 -46z"/>
<path d="M7706 2611 c-5 -7 -3 -18 3 -24 14 -14 20 -6 11 17 -5 15 -9 16 -14
7z"/>
<path d="M4200 2534 c0 -8 32 -33 43 -34 14 0 7 28 -9 34 -20 8 -34 8 -34 0z"/>
<path d="M4621 2471 c-13 -10 -22 -25 -20 -34 3 -14 9 -12 32 12 31 34 23 48
-12 22z"/>
<path d="M2725 2399 c-9 -38 8 -60 24 -32 10 21 4 63 -9 63 -5 0 -11 -14 -15
-31z"/>
<path d="M4302 2412 c4 -21 38 -29 38 -9 0 8 -9 17 -21 20 -15 4 -19 1 -17
-11z"/>
<path d="M1130 2306 c0 -8 5 -18 10 -21 6 -3 10 3 10 14 0 12 -4 21 -10 21 -5
0 -10 -6 -10 -14z"/>
<path d="M2726 2268 c-19 -153 -14 -259 10 -235 10 10 14 266 4 272 -5 3 -11
-14 -14 -37z"/>
<path d="M1212 2228 c7 -19 38 -22 38 -4 0 10 -9 16 -21 16 -12 0 -19 -5 -17
-12z"/>
<path d="M814 2215 c-9 -22 16 -154 37 -202 11 -23 19 -54 19 -68 0 -33 28
-88 40 -80 15 9 12 56 -5 89 -8 15 -15 42 -15 60 0 17 -9 63 -20 101 -11 38
-20 80 -20 92 0 26 -27 32 -36 8z"/>
<path d="M7977 2204 c-8 -8 1 -24 14 -24 5 0 9 7 9 15 0 15 -12 20 -23 9z"/>
<path d="M1325 2181 c-9 -15 3 -31 23 -31 9 0 26 -7 36 -15 11 -8 30 -15 42
-15 12 0 27 -7 34 -15 7 -8 20 -15 29 -15 10 0 26 -7 37 -15 10 -8 33 -15 50
-15 17 0 37 -7 44 -15 7 -8 20 -15 29 -15 9 0 34 -9 55 -21 44 -23 89 -22 94
3 2 11 -6 18 -27 23 -17 4 -33 11 -36 16 -4 5 -22 9 -41 9 -19 0 -59 13 -88
29 -30 15 -70 31 -90 35 -21 4 -57 18 -81 31 -55 29 -101 40 -110 26z"/>
<path d="M8159 2150 c-3 -57 -12 -108 -25 -131 -8 -16 -14 -34 -14 -42 0 -13
-18 -60 -56 -144 -8 -17 -14 -35 -14 -40 0 -6 -6 -23 -14 -39 -48 -100 -66
-143 -66 -160 0 -11 -6 -28 -13 -39 -7 -11 -21 -47 -32 -80 -10 -33 -25 -67
-32 -76 -7 -8 -13 -29 -13 -45 0 -17 -5 -35 -11 -41 -6 -6 -15 -29 -20 -51 -5
-23 -19 -65 -32 -94 -13 -29 -41 -107 -62 -173 -21 -66 -42 -128 -46 -137 -5
-10 -9 -29 -9 -44 0 -14 -6 -40 -14 -57 -19 -42 -46 -124 -46 -141 0 -8 -7
-19 -15 -26 -8 -7 -15 -23 -15 -36 0 -12 -5 -35 -12 -51 -28 -68 -47 -130 -48
-149 0 -12 -7 -27 -15 -34 -8 -7 -15 -21 -15 -32 0 -17 -30 -117 -49 -163 -5
-11 -14 -38 -21 -60 -7 -22 -15 -46 -17 -52 -3 -7 2 -13 11 -13 22 0 76 117
76 165 0 20 7 43 15 51 8 9 15 25 15 37 1 12 7 33 15 47 8 14 14 37 15 51 0
14 7 34 15 45 8 10 15 27 15 37 0 9 9 34 20 54 11 21 20 46 20 56 0 11 11 41
25 69 14 27 25 61 25 75 0 14 6 37 14 51 15 30 35 100 43 152 3 19 11 42 18
50 7 8 22 44 34 80 12 36 26 74 31 85 5 11 11 34 13 50 6 39 24 89 52 145 12
25 25 60 29 79 3 19 26 77 51 129 25 52 45 103 45 112 0 10 14 45 30 78 17 34
30 67 30 74 0 8 4 18 9 23 5 6 21 41 36 80 14 38 32 76 39 85 18 20 26 116 13
155 -12 37 -27 55 -28 35z"/>
<path d="M4110 2120 c-6 -11 -22 -31 -35 -46 -14 -15 -24 -28 -22 -30 1 -2 20
2 42 8 22 6 56 10 75 9 122 -4 261 -3 267 3 15 14 -24 26 -89 26 -37 0 -70 5
-74 11 -3 6 -16 8 -28 5 -13 -3 -39 3 -61 14 -49 25 -62 25 -75 0z"/>
<path d="M7675 2080 c-10 -11 -24 -20 -30 -20 -7 0 -18 -6 -24 -14 -7 -8 -31
-17 -54 -21 -23 -4 -61 -18 -84 -31 -23 -13 -57 -24 -77 -24 -37 0 -57 -17
-36 -30 13 -8 79 6 95 21 5 5 17 9 28 9 10 0 28 6 40 12 27 15 104 37 133 38
22 0 68 55 59 70 -10 16 -30 12 -50 -10z"/>
<path d="M3197 1923 c-4 -93 -11 -197 -16 -233 -23 -147 -52 -768 -38 -820 5
-19 11 -51 14 -70 8 -61 12 -68 29 -46 11 16 14 67 14 259 0 231 19 529 42
672 14 88 14 97 0 225 -27 237 -37 239 -45 13z"/>
<path d="M4453 2038 c2 -9 19 -12 46 -10 31 3 43 -1 47 -13 5 -11 14 -15 30
-11 12 3 26 1 30 -5 4 -7 23 -9 50 -5 26 3 44 2 44 -4 0 -6 7 -10 15 -10 28 0
15 21 -22 36 -22 10 -51 14 -71 11 -23 -4 -35 -2 -39 9 -7 19 -137 21 -130 2z"/>
<path d="M6090 2011 c0 -11 5 -23 10 -26 6 -3 10 3 10 14 0 11 -4 23 -10 26
-5 3 -10 -3 -10 -14z"/>
<path d="M6384 2015 c-8 -21 6 -41 17 -24 12 19 11 39 -1 39 -6 0 -13 -7 -16
-15z"/>
<path d="M2722 1990 c-10 -27 -7 -425 4 -555 4 -44 8 -102 10 -130 5 -96 20
-190 33 -213 7 -13 10 -34 7 -47 -3 -13 -1 -36 5 -52 15 -39 37 -150 54 -263
7 -52 19 -108 24 -123 6 -16 11 -46 11 -68 0 -21 4 -39 9 -39 4 0 11 -26 14
-59 2 -32 11 -69 18 -82 6 -13 14 -40 15 -60 2 -21 8 -49 14 -63 5 -14 7 -32
4 -40 -3 -9 4 -19 17 -26 21 -12 21 -11 16 46 -13 129 -20 170 -33 189 -8 11
-14 38 -14 60 -1 22 -7 51 -15 65 -8 14 -14 46 -15 71 0 25 -7 54 -15 65 -8
10 -15 41 -15 69 0 28 -5 68 -11 90 -6 22 -15 75 -20 118 -5 42 -13 86 -19 97
-5 10 -10 35 -10 55 0 20 -5 45 -10 56 -6 10 -15 72 -20 136 -6 65 -13 132
-16 148 -3 17 -8 147 -10 289 -5 256 -12 319 -32 266z"/>
<path d="M7947 2003 c-13 -12 -7 -33 8 -33 8 0 15 9 15 20 0 20 -11 26 -23 13z"/>
<path d="M1050 1961 c0 -12 5 -21 10 -21 6 0 10 6 10 14 0 8 -4 18 -10 21 -5
3 -10 -3 -10 -14z"/>
<path d="M4100 1955 c0 -8 5 -15 10 -15 6 0 10 7 10 15 0 8 -4 15 -10 15 -5 0
-10 -7 -10 -15z"/>
<path d="M4560 1960 c0 -5 10 -10 23 -10 12 0 31 -7 41 -15 11 -8 38 -15 60
-15 30 0 37 3 26 10 -8 5 -27 10 -41 10 -15 0 -29 7 -33 15 -6 17 -76 21 -76
5z"/>
<path d="M596 1934 c-4 -10 -2 -22 3 -27 7 -7 13 -5 17 7 4 10 2 22 -3 27 -7
7 -13 5 -17 -7z"/>
<path d="M6087 1923 c-3 -10 -2 -49 2 -88 5 -38 9 -61 11 -50 1 11 2 24 1 29
-1 5 5 26 13 46 16 41 11 80 -9 80 -8 0 -16 -8 -18 -17z"/>
<path d="M7286 1931 c-3 -4 -23 -11 -44 -15 -22 -3 -45 -13 -52 -21 -7 -8 -20
-15 -29 -15 -25 0 -151 -69 -151 -82 0 -24 104 9 123 40 4 6 16 12 26 12 10 0
24 7 31 15 7 8 22 15 35 15 12 0 32 9 45 20 13 11 32 20 42 20 11 0 16 5 13
10 -8 12 -32 13 -39 1z"/>
<path d="M4021 1911 c-15 -27 -14 -31 9 -31 13 0 20 7 20 19 0 28 -17 35 -29
12z"/>
<path d="M4436 1923 c-14 -14 -4 -30 31 -46 27 -12 40 -13 50 -5 20 16 16 28
-10 28 -12 0 -32 7 -43 15 -12 8 -24 11 -28 8z"/>
<path d="M4860 1915 c0 -9 -12 -20 -27 -26 -20 -7 -24 -12 -14 -22 9 -9 17 -5
36 17 27 31 31 46 15 46 -5 0 -10 -7 -10 -15z"/>
<path d="M6357 1906 c-6 -15 1 -26 15 -26 4 0 8 9 8 20 0 23 -15 27 -23 6z"/>
<path d="M5580 1902 c0 -6 -6 -17 -14 -25 -8 -7 -23 -34 -35 -59 l-21 -46 21
-48 c33 -73 36 -213 10 -414 -19 -140 -23 -227 -26 -575 -3 -226 -7 -446 -10
-491 -5 -66 -4 -83 9 -93 9 -8 16 -12 17 -10 26 100 30 177 35 584 2 242 9
472 14 510 29 201 32 270 20 470 -7 110 -14 202 -16 204 -2 2 -4 -1 -4 -7z"/>
<path d="M7644 1877 c-8 -21 2 -35 16 -21 5 5 6 15 0 24 -8 12 -10 12 -16 -3z"/>
<path d="M4182 1850 c-24 -38 -10 -40 33 -5 l30 25 -25 0 c-14 0 -31 -9 -38
-20z"/>
<path d="M4658 1829 c-36 -21 -21 -39 32 -39 34 0 50 4 50 13 0 33 -46 47 -82
26z"/>
<path d="M6330 1804 c-7 -17 -7 -31 0 -42 8 -15 9 -14 10 4 0 12 7 27 15 34 8
7 12 16 9 21 -10 16 -24 9 -34 -17z"/>
<path d="M910 1803 c1 -10 7 -31 14 -48 l13 -30 8 27 c4 15 4 36 0 47 -8 25
-35 28 -35 4z"/>
<path d="M4520 1761 c0 -25 11 -32 39 -24 22 6 22 6 2 24 -26 24 -41 24 -41 0z"/>
<path d="M4301 1756 c-9 -11 -8 -15 5 -20 20 -8 39 7 30 23 -10 15 -21 14 -35
-3z"/>
<path d="M6060 1744 c0 -17 22 -14 28 4 2 7 -3 12 -12 12 -9 0 -16 -7 -16 -16z"/>
<path d="M954 1628 c3 -74 7 -94 22 -105 29 -21 41 11 20 54 -9 18 -19 58 -22
88 -11 88 -24 63 -20 -37z"/>
<path d="M1340 1695 c-10 -13 -9 -15 9 -15 11 0 21 4 21 9 0 18 -18 21 -30 6z"/>
<path d="M6057 1693 c-2 -5 -5 -53 -5 -109 0 -55 -5 -119 -12 -142 -13 -50
-21 -222 -10 -222 4 0 10 30 13 66 4 37 13 74 20 83 10 11 13 41 12 106 -2 50
2 105 7 123 15 51 -5 129 -25 95z"/>
<path d="M3328 1668 c-21 -18 -36 -166 -48 -503 -6 -148 -15 -363 -20 -478 -9
-177 -8 -213 5 -243 8 -20 15 -49 15 -65 0 -15 5 -40 11 -56 l11 -28 10 25 c6
15 7 70 4 135 -7 120 8 632 24 840 6 72 18 180 27 242 14 92 14 114 4 127 -16
19 -22 20 -43 4z"/>
<path d="M5445 1618 c-12 -38 -18 -97 -21 -202 -2 -82 -9 -177 -15 -210 -6
-36 -12 -214 -14 -431 -1 -203 -6 -462 -10 -573 l-8 -204 24 4 c23 3 24 7 30
98 4 52 10 311 14 575 4 325 11 509 21 571 7 49 16 165 20 257 6 147 5 167 -8
167 -10 0 -22 -19 -33 -52z"/>
<path d="M8505 1630 c-10 -16 4 -50 21 -50 11 0 14 8 12 27 -3 28 -22 41 -33
23z"/>
<path d="M7020 1614 c0 -17 22 -14 28 4 2 7 -3 12 -12 12 -9 0 -16 -7 -16 -16z"/>
<path d="M5027 1604 c-8 -8 3 -34 14 -34 5 0 9 9 9 20 0 19 -11 26 -23 14z"/>
<path d="M2130 1525 c0 -8 5 -15 10 -15 6 0 10 7 10 15 0 8 -4 15 -10 15 -5 0
-10 -7 -10 -15z"/>
<path d="M997 1484 c-7 -7 14 -85 37 -136 25 -58 42 -49 22 13 -8 24 -17 60
-20 81 -6 32 -26 55 -39 42z"/>
<path d="M4612 1458 c6 -18 28 -21 28 -4 0 9 -7 16 -16 16 -9 0 -14 -5 -12
-12z"/>
<path d="M6477 1433 c-10 -10 -8 -53 2 -53 10 0 21 24 21 46 0 15 -12 19 -23
7z"/>
<path d="M7443 1388 c-6 -7 -13 -21 -16 -30 -3 -9 -16 -18 -29 -20 -29 -4 -30
-28 -1 -39 15 -5 26 -2 39 12 9 10 25 19 35 19 45 0 65 30 37 58 -16 16 -53
15 -65 0z"/>
<path d="M5886 1294 c-9 -25 -7 -64 4 -64 6 0 10 18 10 40 0 43 -4 50 -14 24z"/>
<path d="M6916 1302 c-3 -6 -1 -14 5 -17 15 -10 25 3 12 16 -7 7 -13 7 -17 1z"/>
<path d="M7287 1303 c-13 -12 -7 -23 12 -23 26 0 35 16 15 24 -19 7 -19 7 -27
-1z"/>
<path d="M1055 1263 c3 -10 11 -40 16 -67 14 -73 31 -129 45 -146 7 -8 15 -37
19 -65 4 -27 11 -54 15 -60 4 -5 10 -33 14 -62 4 -28 18 -77 33 -108 16 -37
25 -73 25 -103 -1 -25 6 -59 15 -76 30 -59 33 -66 33 -86 0 -11 9 -29 20 -40
14 -14 20 -33 20 -62 0 -23 6 -49 14 -57 7 -9 19 -41 25 -71 21 -96 24 -105
37 -113 8 -4 14 -23 14 -42 0 -33 28 -104 41 -105 19 0 15 37 -13 121 -16 52
-36 106 -44 121 -8 14 -14 36 -14 48 0 19 -28 98 -50 140 -4 9 -10 31 -14 50
-14 72 -39 165 -48 174 -4 6 -8 22 -8 38 0 15 -9 35 -19 45 -12 11 -21 37 -24
68 -5 55 -23 123 -43 172 -8 17 -14 38 -14 46 0 9 -4 19 -10 22 -5 3 -10 23
-10 44 0 21 -7 52 -15 67 -8 16 -15 40 -15 54 0 28 -25 70 -42 70 -6 0 -7 -8
-3 -17z"/>
<path d="M7110 1240 c0 -5 4 -10 9 -10 5 0 16 -3 25 -6 11 -4 16 -1 16 10 0
10 -9 16 -25 16 -14 0 -25 -4 -25 -10z"/>
<path d="M1500 1161 c0 -12 5 -21 10 -21 6 0 10 6 10 14 0 8 -4 18 -10 21 -5
3 -10 -3 -10 -14z"/>
<path d="M8306 1165 c-11 -30 -7 -65 9 -65 17 0 21 46 6 68 -7 11 -10 10 -15
-3z"/>
<path d="M6001 1094 c1 -41 2 -45 9 -22 4 14 11 31 14 36 3 5 -1 15 -9 22 -13
11 -15 6 -14 -36z"/>
<path d="M4374 1065 c-6 -14 12 -56 29 -66 6 -4 6 -24 0 -55 -5 -27 -9 -75 -7
-106 1 -39 -3 -61 -12 -69 -16 -13 -19 -39 -4 -39 6 0 10 -30 10 -70 0 -75 7
-83 51 -60 16 9 17 14 8 32 -8 15 -8 26 2 44 10 19 10 27 1 36 -16 16 -15 55
1 65 8 5 12 36 12 93 0 84 0 84 30 99 17 8 43 21 60 30 35 18 76 16 115 -4 37
-19 80 -20 80 -1 0 20 -79 56 -121 56 -20 0 -60 4 -90 9 -112 19 -160 21 -165
6z"/>
<path d="M5967 986 c-3 -8 -3 -24 0 -35 3 -12 0 -28 -7 -36 -8 -9 -10 -28 -6
-49 4 -22 0 -54 -13 -93 -21 -63 -25 -156 -7 -150 6 2 11 15 12 28 1 35 15 92
25 105 12 15 21 231 10 238 -5 3 -11 0 -14 -8z"/>
<path d="M2085 910 c-7 -12 2 -30 16 -30 5 0 9 9 9 20 0 21 -15 27 -25 10z"/>
<path d="M1351 873 c0 -29 2 -33 8 -18 7 18 4 55 -5 55 -2 0 -4 -17 -3 -37z"/>
<path d="M3060 854 c0 -14 4 -23 9 -20 5 3 7 15 4 26 -7 28 -13 25 -13 -6z"/>
<path d="M5767 873 c-11 -10 -8 -43 3 -43 6 0 10 11 10 25 0 26 -2 29 -13 18z"/>
<path d="M4525 850 c-7 -11 8 -41 29 -59 13 -11 17 -10 22 4 14 36 -32 86 -51
55z"/>
<path d="M4557 733 c-8 -14 5 -73 15 -73 6 0 7 7 4 16 -4 9 -1 23 5 30 6 7 8
18 4 24 -7 12 -22 13 -28 3z"/>
<path d="M7856 714 c-3 -9 -2 -23 4 -32 7 -14 9 -10 10 16 0 35 -5 41 -14 16z"/>
<path d="M4094 588 c-11 -13 -26 -41 -33 -63 -8 -22 -30 -55 -49 -73 -40 -38
-38 -47 9 -34 24 6 35 15 37 30 2 12 17 31 33 42 16 12 29 28 29 37 0 9 9 31
21 49 l21 34 -24 0 c-14 0 -33 -10 -44 -22z"/>
<path d="M4560 584 c0 -14 4 -23 10 -19 6 3 10 15 10 26 0 10 -4 19 -10 19 -5
0 -10 -12 -10 -26z"/>
<path d="M5907 577 c-6 -17 4 -110 11 -102 9 9 12 115 3 115 -5 0 -11 -6 -14
-13z"/>
<path d="M7435 540 c-8 -13 4 -32 16 -25 12 8 12 35 0 35 -6 0 -13 -4 -16 -10z"/>
<path d="M4415 520 c-3 -5 -15 -10 -25 -10 -50 0 -28 -43 28 -55 32 -7 32 -7
32 34 0 29 -4 41 -14 41 -8 0 -18 -4 -21 -10z"/>
<path d="M8130 494 c0 -14 4 -23 9 -20 5 3 7 15 4 26 -7 28 -13 25 -13 -6z"/>
<path d="M2520 429 c0 -11 5 -17 10 -14 6 3 10 13 10 21 0 8 -4 14 -10 14 -5
0 -10 -9 -10 -21z"/>
<path d="M5900 418 c1 -31 2 -32 15 -15 7 11 11 25 8 33 -10 25 -23 15 -23
-18z"/>
<path d="M507 373 c-3 -5 -2 -15 2 -22 7 -10 10 -10 16 -1 4 6 3 16 -3 22 -5
5 -12 6 -15 1z"/>
<path d="M5877 373 c-4 -3 -7 -19 -7 -33 0 -15 -6 -33 -13 -39 -8 -6 -21 -55
-31 -108 -9 -54 -21 -112 -26 -129 -12 -37 -13 -64 -2 -64 11 0 35 60 44 110
20 122 26 148 41 190 9 25 17 53 17 63 0 17 -11 22 -23 10z"/>
<path d="M4427 353 c-4 -3 -7 -24 -7 -45 0 -47 22 -48 31 -2 8 43 -4 67 -24
47z"/>
<path d="M2332 279 c1 -12 9 -24 16 -27 9 -3 13 3 10 19 -1 12 -9 24 -16 27
-9 3 -13 -3 -10 -19z"/>
<path d="M3894 266 c-8 -22 3 -33 18 -18 9 9 9 15 0 24 -9 9 -13 7 -18 -6z"/>
<path d="M2095 200 c-7 -12 2 -30 16 -30 12 0 12 27 0 35 -5 3 -12 1 -16 -5z"/>
<path d="M2970 102 c0 -16 3 -32 8 -36 4 -4 7 -13 7 -19 0 -5 6 -12 13 -14 15
-6 17 50 2 78 -15 28 -30 23 -30 -9z"/>
<path d="M8878 97 c-6 -16 1 -37 13 -37 12 0 12 37 0 44 -5 3 -11 0 -13 -7z"/>
<path d="M7917 75 c-7 -18 6 -27 27 -19 13 5 14 9 5 20 -15 18 -25 18 -32 -1z"/>
<path d="M5498 64 c-5 -4 -8 -19 -8 -33 0 -18 3 -22 11 -14 6 6 9 21 7 33 -1
12 -6 18 -10 14z"/>
</g>
</svg>
